<?xml version="1.0" standalone="no"?>
<!DOCTYPE svg PUBLIC "-//W3C//DTD SVG 20010904//EN"
 "http://www.w3.org/TR/2001/REC-SVG-20010904/DTD/svg10.dtd">
<svg version="1.0" xmlns="http://www.w3.org/2000/svg"
 width="1920.000000pt" height="1080.000000pt" viewBox="0 0 1920.000000 1080.000000"
 preserveAspectRatio="xMidYMid meet">

<g transform="translate(0.000000,1080.000000) scale(0.100000,-0.100000)"
fill="#000000" stroke="none">
<path d="M0 5400 l0 -5400 9600 0 9600 0 0 5400 0 5400 -9600 0 -9600 0 0
-5400z m5790 1285 l0 -45 89 0 90 0 3 43 c3 41 4 42 38 42 34 0 35 -1 38 -42
l3 -43 90 0 89 0 0 45 c0 45 0 45 35 45 l35 0 0 -85 0 -85 -290 0 -290 0 0 85
0 85 35 0 c35 0 35 0 35 -45z m3180 -1370 l0 -1315 -25 0 -25 0 0 1315 0 1315
25 0 25 0 0 -1315z m921 1298 c74 -24 159 -107 184 -182 37 -114 16 -226 -61
-310 -62 -70 -114 -94 -210 -99 -71 -4 -89 -1 -136 20 -71 33 -118 75 -154
140 -26 48 -29 62 -29 143 0 81 3 95 30 144 74 133 226 192 376 144z m-3623
-130 l-3 -38 -252 -3 -253 -2 0 40 0 40 256 0 255 0 -3 -37z m5920 -100 c1
-64 7 -113 12 -113 6 0 10 -4 10 -9 0 -5 -33 -9 -74 -9 -93 -1 -109 12 -104
88 2 44 8 56 30 73 24 18 32 19 63 10 34 -11 35 -11 35 18 0 16 -4 29 -10 29
-5 0 -10 7 -10 16 0 10 7 14 23 12 21 -3 22 -7 25 -115z m410 94 c2 -10 -3
-17 -12 -17 -18 0 -29 16 -21 31 9 14 29 6 33 -14z m1170 -25 c3 -39 5 -41 24
-31 24 13 60 5 82 -17 22 -21 21 -111 -1 -136 -21 -23 -89 -24 -115 -1 -15 13
-18 32 -18 110 0 55 -4 93 -10 93 -5 0 -10 7 -10 16 0 10 7 14 23 12 18 -2 23
-10 25 -46z m-1078 -12 c0 -15 7 -20 25 -20 14 0 25 -4 25 -10 0 -5 -11 -10
-25 -10 -24 0 -25 -2 -25 -66 0 -66 0 -66 25 -60 19 5 25 2 25 -9 0 -13 -9
-15 -37 -13 l-38 3 -3 73 c-2 58 -6 72 -19 72 -15 0 -15 2 0 18 10 10 17 24
17 30 0 7 7 12 15 12 8 0 15 -9 15 -20z m-1210 -25 c0 -8 -5 -15 -11 -15 -6 0
-8 -11 -4 -28 8 -37 -19 -71 -65 -82 l-35 -8 32 -1 c57 -2 83 -17 83 -50 0
-39 -32 -61 -87 -61 -59 0 -109 53 -72 75 20 13 27 49 13 70 -15 21 -18 63 -6
82 11 18 52 30 105 32 35 0 47 -3 47 -14z m287 -6 c8 -7 13 -33 13 -70 0 -32
5 -61 10 -64 25 -15 5 -23 -57 -24 -75 0 -93 9 -93 49 0 35 19 50 70 57 31 4
40 10 38 22 -4 20 -54 27 -73 11 -16 -13 -39 -4 -29 11 17 29 90 33 121 8z
m210 -1 c8 -6 13 -34 13 -69 0 -32 5 -61 10 -64 19 -12 10 -25 -17 -25 -28 0
-28 0 -28 72 0 73 0 73 -28 76 -16 2 -35 -2 -43 -9 -16 -13 -20 -104 -4 -114
21 -13 9 -25 -25 -25 -19 0 -35 5 -35 10 0 6 5 10 10 10 6 0 10 28 10 65 0 37
-4 65 -10 65 -5 0 -10 5 -10 11 0 8 12 10 33 6 19 -3 40 -1 48 4 16 10 57 3
76 -13z m386 -10 c9 -11 17 -31 17 -44 0 -23 -3 -24 -60 -24 -51 0 -60 -3 -60
-18 0 -10 5 -23 12 -30 15 -15 54 -16 63 -2 9 15 35 12 35 -4 0 -30 -92 -37
-122 -9 -25 22 -25 113 0 135 37 33 85 32 115 -4z m131 22 c14 -5 26 -16 26
-25 0 -18 -12 -19 -27 -4 -14 14 -55 8 -61 -8 -2 -8 15 -21 41 -32 53 -23 68
-53 41 -82 -27 -29 -114 -24 -114 7 0 16 26 19 35 4 9 -14 41 -12 53 3 15 18
3 32 -41 47 -42 13 -52 28 -43 64 8 33 45 43 90 26z m363 0 c29 -11 53 -45 53
-75 0 -12 -14 -15 -60 -15 -51 0 -60 -3 -60 -18 0 -38 41 -54 80 -30 24 15 37
4 20 -17 -17 -20 -88 -20 -112 2 -13 12 -18 30 -18 67 0 59 6 71 40 85 14 5
25 10 26 10 1 1 15 -4 31 -9z m272 -1 c17 -6 31 -17 31 -25 0 -17 -22 -18 -37
-3 -6 6 -23 9 -39 7 -27 -3 -29 -6 -32 -51 -5 -70 27 -96 78 -65 24 15 37 4
20 -17 -17 -20 -88 -20 -112 2 -13 12 -18 30 -18 67 0 59 6 71 40 85 33 13 32
13 69 0z m194 -20 c10 -13 17 -38 17 -65 0 -58 -25 -84 -80 -84 -55 0 -80 26
-80 83 0 45 11 67 45 86 27 15 76 5 98 -20z m157 21 c12 -6 28 -6 49 1 27 9
35 8 51 -6 16 -14 20 -31 20 -82 0 -35 4 -63 10 -63 6 0 10 -4 10 -10 0 -5
-16 -10 -35 -10 -19 0 -35 5 -35 10 0 6 5 10 10 10 7 0 10 24 8 63 -3 59 -4
62 -28 62 -24 0 -25 -3 -28 -62 -2 -39 1 -63 8 -63 5 0 10 -4 10 -10 0 -5 -16
-10 -35 -10 -34 0 -46 12 -25 25 11 7 14 84 4 109 -7 19 -35 21 -52 4 -14 -14
-16 -104 -2 -113 21 -13 9 -25 -25 -25 -19 0 -35 5 -35 10 0 6 5 10 10 10 6 0
10 28 10 65 0 37 -4 65 -10 65 -5 0 -10 5 -10 10 0 6 16 10 35 8 19 -1 37 1
41 5 10 10 22 9 44 -3z m-2985 -22 c-3 -13 1 -43 8 -68 l14 -44 18 54 c13 38
15 55 6 58 -26 9 -8 22 30 22 35 0 40 -2 29 -15 -9 -11 -9 -22 0 -52 7 -21 16
-42 20 -46 10 -11 32 77 24 97 -5 14 4 16 55 16 59 0 61 -1 56 -22 -3 -13 1
-43 8 -68 l14 -44 18 54 c13 38 15 55 6 58 -26 9 -8 22 30 22 35 0 40 -2 29
-15 -9 -11 -9 -22 0 -52 7 -21 16 -42 20 -46 10 -11 32 77 24 97 -5 14 4 16
55 16 34 0 61 -4 61 -9 0 -5 -4 -11 -9 -13 -5 -1 -1 -27 8 -57 l16 -54 17 54
c11 33 14 55 8 57 -23 8 -7 22 26 22 31 0 35 -3 29 -20 -6 -20 13 -100 25
-100 12 0 32 94 21 98 -24 8 -9 22 24 22 19 0 35 -4 35 -10 0 -5 -4 -10 -8
-10 -5 0 -19 -34 -31 -75 -17 -59 -25 -75 -40 -75 -14 0 -24 14 -37 53 l-17
52 -17 -50 c-12 -35 -23 -51 -37 -53 -17 -3 -23 8 -42 73 -13 47 -26 75 -34
72 -6 -2 -21 -35 -33 -73 -16 -52 -27 -70 -41 -72 -16 -2 -23 6 -33 43 -7 25
-16 47 -20 50 -3 2 -12 -19 -19 -46 -11 -42 -16 -50 -34 -47 -17 2 -26 18 -42
73 -13 43 -27 70 -35 70 -9 0 -23 -27 -36 -70 -16 -53 -27 -71 -41 -73 -16 -2
-23 6 -33 43 -7 25 -16 47 -20 50 -3 2 -12 -19 -19 -46 -11 -42 -16 -50 -34
-47 -17 2 -26 17 -42 70 -11 37 -23 70 -27 74 -16 15 -7 24 22 24 26 0 30 -3
25 -22z m1135 1 c0 -21 -26 -26 -33 -6 -3 9 -7 9 -20 -2 -19 -15 -25 -121 -7
-121 6 0 10 -4 10 -10 0 -5 -16 -10 -35 -10 -34 0 -46 12 -25 25 6 3 10 33 10
66 0 33 -4 59 -10 59 -5 0 -10 4 -10 9 0 5 27 10 60 10 53 0 60 -2 60 -20z
m970 -54 c0 -43 4 -75 10 -75 6 0 10 -4 10 -10 0 -5 -16 -10 -35 -10 -34 0
-46 12 -25 25 6 3 10 33 10 66 0 33 -4 59 -10 59 -5 0 -10 5 -10 10 0 6 11 10
25 10 24 0 25 -2 25 -75z m1440 54 c0 -21 -26 -26 -33 -6 -3 9 -8 9 -21 -3
-15 -11 -17 -26 -14 -77 4 -62 3 -63 -22 -63 -25 0 -25 1 -25 84 l0 84 58 1
c50 0 57 -2 57 -20z m-7580 -124 l0 -115 155 0 c85 0 155 -3 155 -6 0 -4 -29
-47 -65 -95 -36 -49 -65 -91 -65 -94 0 -3 29 -45 65 -94 36 -48 65 -91 65 -95
0 -3 -72 -6 -160 -6 l-160 0 -24 -49 c-51 -100 -189 -218 -358 -306 l-58 -30
-54 28 c-165 86 -314 213 -357 304 l-24 52 -163 3 -163 3 61 85 c34 47 64 91
67 97 3 7 -25 55 -62 105 l-66 93 155 3 156 3 0 114 0 115 450 0 450 0 0 -115z
m4823 1 c7 -18 -1 -26 -25 -26 -18 0 -25 20 -11 33 11 12 31 8 36 -7z m1697
-6 c0 -13 -7 -20 -20 -20 -13 0 -20 7 -20 20 0 13 7 20 20 20 13 0 20 -7 20
-20z m713 6 c7 -18 -1 -26 -25 -26 -18 0 -25 20 -11 33 11 12 31 8 36 -7z
m-3605 -673 c3 -18 -19 -35 -141 -107 -79 -47 -147 -86 -150 -86 -17 0 -297
174 -297 184 0 34 21 36 305 34 279 -3 280 -3 283 -25z m592 -132 c0 -63 4
-112 10 -116 21 -13 9 -25 -25 -25 -19 0 -35 5 -35 10 0 6 5 10 10 10 13 0 13
197 0 205 -15 9 -2 25 21 25 18 0 19 -8 19 -109z m441 73 c30 -29 45 -78 34
-113 -8 -25 -51 -38 -76 -23 -12 8 -20 8 -24 2 -8 -13 -62 -13 -70 1 -4 6 -4
26 0 45 7 39 34 55 78 47 23 -5 25 -9 20 -34 -7 -38 12 -62 38 -48 37 19 16
100 -32 125 -48 24 -87 18 -125 -20 -27 -27 -34 -42 -34 -74 0 -77 75 -127
146 -97 36 15 48 3 15 -15 -27 -14 -91 -12 -119 4 -54 29 -78 109 -49 166 7
13 28 35 47 48 47 32 109 26 151 -14z m929 -73 c0 -63 4 -112 10 -116 25 -15
5 -23 -57 -24 -87 0 -103 13 -103 85 0 57 14 80 55 90 13 3 33 1 44 -6 19 -10
21 -8 21 19 0 16 -5 33 -10 36 -15 9 -2 25 21 25 18 0 19 -8 19 -109z m415 89
c0 -8 -8 -16 -17 -18 -13 -2 -18 3 -18 18 0 15 5 20 18 18 9 -2 17 -10 17 -18z
m1165 -26 c0 -40 2 -45 18 -39 39 17 59 16 85 -5 23 -18 27 -29 27 -71 0 -62
-24 -89 -77 -89 -67 0 -83 27 -83 139 0 44 -5 83 -10 86 -15 9 -2 25 21 25 16
0 19 -7 19 -46z m-1077 -14 c3 -12 14 -20 26 -20 12 0 21 -4 21 -10 0 -5 -11
-10 -25 -10 -25 0 -26 -1 -23 -62 3 -58 5 -63 25 -63 32 -1 29 -19 -4 -23 -38
-5 -53 20 -53 89 0 36 -5 59 -12 63 -9 3 -8 8 5 16 9 6 17 18 17 25 0 22 17
18 23 -5z m-2902 -78 c76 -45 142 -82 147 -82 6 0 73 38 149 85 l138 84 3
-166 c2 -109 -1 -170 -8 -177 -15 -15 -516 -21 -553 -7 l-27 11 0 170 c0 94 3
169 8 167 4 -2 68 -41 143 -85z m942 37 c10 -13 17 -38 17 -65 0 -58 -25 -84
-80 -84 -55 0 -80 26 -80 83 0 45 11 67 45 86 27 15 76 5 98 -20z m259 4 c13
-12 18 -31 18 -75 0 -32 4 -58 10 -58 6 0 10 -4 10 -10 0 -5 -11 -10 -25 -10
-14 0 -25 5 -25 12 0 9 -3 9 -12 0 -17 -17 -74 -15 -92 4 -20 19 -21 58 -2 73
7 6 34 14 60 17 49 7 55 14 31 34 -14 12 -42 10 -77 -5 -13 -5 -18 -2 -18 9 0
37 85 43 122 9z m498 12 c0 -8 -6 -15 -13 -15 -9 0 -12 -11 -9 -34 5 -43 -25
-75 -70 -77 -23 -1 -17 -4 21 -9 56 -8 71 -20 71 -57 0 -30 -37 -53 -85 -53
-66 0 -110 47 -72 78 15 13 20 59 7 67 -12 7 -13 65 -2 81 14 21 47 32 99 33
40 0 53 -3 53 -14z m263 4 c32 -17 37 -28 37 -91 0 -32 5 -58 10 -58 6 0 10
-4 10 -9 0 -5 -32 -9 -70 -9 -63 -1 -72 1 -86 23 -9 13 -13 33 -9 44 6 21 52
41 92 41 18 0 24 5 21 18 -4 20 -53 29 -73 12 -14 -12 -35 -6 -35 9 0 10 40
29 63 30 10 1 28 -4 40 -10z m210 0 c32 -17 37 -28 37 -86 0 -28 5 -55 10 -58
21 -13 9 -25 -25 -25 -19 0 -35 5 -35 10 0 6 5 10 10 10 11 0 14 88 4 114 -7
19 -55 21 -72 4 -14 -14 -16 -118 -2 -118 6 0 10 -4 10 -10 0 -5 -16 -10 -35
-10 -19 0 -35 5 -35 10 0 6 5 10 10 10 6 0 10 28 10 65 0 37 -4 65 -10 65 -5
0 -10 4 -10 10 0 5 18 9 40 8 22 -1 43 2 47 5 9 10 21 9 46 -4z m400 -16 c9
-9 17 -29 17 -45 0 -28 -1 -28 -61 -28 -58 0 -60 -1 -53 -22 12 -39 46 -49 84
-26 26 16 40 0 16 -18 -21 -15 -83 -19 -102 -6 -32 21 -44 94 -23 133 21 40
83 46 122 12z m142 15 c14 -6 25 -15 25 -19 0 -15 -22 -21 -33 -10 -18 18 -57
14 -57 -7 0 -12 14 -22 43 -32 34 -12 43 -20 45 -43 2 -16 -2 -35 -9 -43 -15
-18 -93 -19 -108 0 -17 20 2 29 33 15 13 -6 32 -9 40 -6 30 12 17 37 -29 57
-39 17 -45 23 -45 50 0 43 44 61 95 38z m388 -15 c9 -9 17 -29 17 -45 0 -28
-1 -28 -61 -28 -58 0 -60 -1 -53 -22 12 -39 46 -49 84 -26 26 16 40 0 16 -18
-21 -15 -83 -19 -102 -6 -32 21 -44 94 -23 133 21 40 83 46 122 12z m266 2
c20 -20 5 -32 -19 -17 -55 34 -99 -3 -86 -72 8 -42 42 -57 82 -36 30 17 46 3
20 -16 -21 -15 -83 -19 -102 -6 -29 19 -43 86 -28 127 16 40 100 52 133 20z
m150 10 c33 -17 41 -33 41 -84 0 -51 -29 -81 -78 -81 -61 0 -82 22 -82 84 0
38 5 57 18 68 34 30 62 34 101 13z m181 5 c13 -7 27 -7 44 1 20 10 30 9 51 -5
22 -15 25 -23 25 -81 0 -37 4 -65 10 -65 6 0 10 -4 10 -10 0 -5 -16 -10 -35
-10 -34 0 -46 12 -25 25 6 3 10 31 10 61 0 58 -16 77 -49 57 -19 -12 -28 -100
-12 -116 18 -18 12 -27 -17 -27 l-27 0 3 75 c4 62 2 75 -11 75 -40 0 -47 -11
-47 -71 0 -33 4 -59 10 -59 6 0 10 -4 10 -10 0 -5 -16 -10 -35 -10 -19 0 -35
5 -35 10 0 6 5 10 10 10 6 0 10 28 10 65 0 37 -4 65 -10 65 -5 0 -10 5 -10 10
0 6 16 10 35 8 19 -1 37 1 41 5 10 10 22 9 44 -3z m-1850 -21 c0 -21 -26 -26
-33 -6 -3 9 -8 9 -21 -3 -15 -11 -17 -26 -14 -77 4 -62 3 -63 -22 -63 -25 0
-25 1 -25 84 l0 84 58 1 c50 0 57 -2 57 -20z m970 -48 c0 -38 3 -76 6 -85 5
-12 0 -16 -22 -16 l-29 0 0 85 c0 81 1 85 23 85 21 0 22 -4 22 -69z m1360 57
c0 -9 3 -9 12 0 7 7 25 12 40 12 21 0 28 -5 28 -20 0 -22 -19 -27 -37 -9 -7 7
-15 5 -27 -6 -18 -18 -23 -100 -6 -110 21 -13 9 -25 -25 -25 -19 0 -35 5 -35
10 0 6 5 10 10 10 6 0 10 28 10 65 0 37 -4 65 -10 65 -5 0 -10 5 -10 10 0 6
11 10 25 10 14 0 25 -5 25 -12z m-982 -141 c2 -11 -3 -17 -16 -17 -24 0 -32 8
-25 26 7 20 37 13 41 -9z m712 3 c0 -13 -7 -20 -20 -20 -13 0 -20 7 -20 20 0
13 7 20 20 20 13 0 20 -7 20 -20z m-8557 -235 c67 -32 82 -64 85 -193 3 -74
-1 -124 -8 -143 -57 -135 -330 -145 -395 -14 -27 54 -28 233 -2 282 20 37 59
67 107 82 50 15 168 8 213 -14z m1005 -4 c39 -20 42 -24 42 -61 l0 -40 -41 0
c-29 0 -50 7 -71 25 -39 33 -90 34 -123 0 -23 -22 -25 -31 -25 -128 0 -88 3
-109 19 -128 27 -33 99 -34 133 -1 17 15 37 22 66 22 l42 0 0 -39 c0 -37 -3
-41 -47 -63 -68 -33 -190 -33 -249 1 -67 38 -84 79 -84 206 0 148 25 195 120
224 55 17 168 8 218 -18z m-1505 5 c52 -22 72 -51 72 -107 0 -37 -5 -54 -22
-70 l-22 -22 29 -34 c54 -61 33 -149 -43 -184 -35 -15 -66 -19 -189 -19 l-148
0 0 26 c0 15 10 36 23 48 22 20 23 29 22 106 -1 47 -3 110 -4 141 -1 48 -4 58
-21 62 -15 4 -20 14 -20 36 l0 31 145 0 c101 0 156 -4 178 -14z m993 -5 c84
-38 100 -156 30 -217 -29 -25 -34 -33 -23 -43 8 -6 22 -29 32 -50 11 -25 26
-42 41 -45 20 -5 24 -13 24 -42 l0 -35 -71 3 -71 3 -33 80 c-30 74 -35 80 -64
83 -31 3 -31 3 -31 -42 0 -36 4 -46 20 -51 15 -5 20 -15 20 -41 l0 -34 -100 0
-100 0 0 34 c0 26 5 36 20 41 19 6 20 15 20 152 0 136 -1 145 -20 150 -15 4
-20 14 -20 39 l0 34 143 0 c117 0 149 -4 183 -19z m1004 -36 l0 -55 -50 0
c-38 0 -50 4 -50 15 0 12 -13 15 -60 15 l-60 0 0 -50 c0 -39 3 -50 16 -50 9 0
18 9 21 20 4 16 14 20 45 20 l39 0 -3 -82 -3 -83 -33 -3 c-27 -3 -34 1 -42 23
-16 41 -35 25 -38 -33 l-3 -52 55 0 c49 0 55 2 58 23 3 19 10 22 61 25 l57 3
0 -66 0 -65 -195 0 -195 0 0 34 c0 25 5 35 20 39 19 5 20 14 20 152 0 138 -1
147 -20 152 -15 4 -20 14 -20 39 l0 34 190 0 190 0 0 -55z m290 21 c0 -25 -5
-35 -20 -39 -19 -5 -20 -14 -20 -151 l0 -146 39 0 c33 0 40 4 45 25 6 23 11
25 61 25 l55 0 0 -65 0 -65 -180 0 -180 0 0 34 c0 26 5 36 20 41 19 6 20 15
20 152 0 136 -1 145 -20 150 -15 4 -20 14 -20 39 l0 34 100 0 100 0 0 -34z
m430 0 c0 -25 -5 -35 -20 -39 -19 -5 -20 -14 -20 -151 l0 -146 39 0 c33 0 40
4 45 25 6 23 11 25 61 25 l55 0 0 -65 0 -65 -180 0 -180 0 0 34 c0 26 5 36 20
41 19 6 20 15 20 152 0 136 -1 145 -20 150 -15 4 -20 14 -20 39 l0 34 100 0
100 0 0 -34z m600 -21 l0 -55 -45 0 c-31 0 -47 5 -51 15 -5 11 -21 15 -60 15
l-54 0 0 -50 c0 -36 4 -50 14 -50 7 0 16 9 19 20 4 15 14 20 41 20 l36 0 0
-86 0 -85 -37 3 c-31 2 -39 7 -41 26 -2 12 -10 22 -18 22 -10 0 -14 -14 -14
-55 l0 -55 50 0 c45 0 50 3 56 25 6 23 11 25 60 25 l54 0 0 -65 0 -65 -195 0
-195 0 0 34 c0 25 5 35 20 39 19 5 20 14 20 155 0 141 -1 150 -20 155 -15 4
-20 14 -20 36 l0 31 190 0 190 0 0 -55z m2116 -342 c45 -24 104 -85 130 -135
22 -41 30 -169 15 -225 -18 -67 -80 -136 -155 -173 -59 -29 -72 -32 -138 -28
-177 9 -296 140 -286 313 7 113 64 199 162 247 56 27 68 29 146 25 61 -2 96
-9 126 -24z m594 -87 c0 -3 -10 -22 -22 -43 -32 -53 -31 -151 1 -211 25 -49
21 -65 -9 -37 -30 27 -53 110 -47 166 7 57 42 129 62 129 8 0 15 -2 15 -4z
m473 -34 c11 -19 22 -60 24 -96 5 -54 2 -72 -20 -120 -16 -35 -32 -56 -42 -56
-9 0 -15 3 -13 8 45 86 50 108 45 168 -3 41 -13 76 -27 99 -21 34 -21 37 -4
33 10 -1 27 -18 37 -36z m-343 -92 c0 -109 0 -110 25 -116 46 -12 26 -24 -40
-24 -66 0 -86 13 -40 24 25 6 26 8 23 93 -3 83 -4 87 -28 94 -25 6 -25 6 10
22 19 9 38 16 43 17 4 0 7 -49 7 -110z m243 78 c27 -36 18 -65 -44 -132 l-51
-56 40 0 c26 0 42 5 46 15 10 26 26 16 26 -15 l0 -30 -80 0 c-52 0 -80 4 -80
11 0 6 26 41 58 78 73 83 75 86 62 111 -13 24 -62 27 -80 5 -16 -19 -40 -19
-40 0 0 21 50 45 89 42 23 -1 40 -10 54 -29z m377 14 c26 -21 30 -66 7 -89
-13 -14 -13 -17 4 -34 46 -46 8 -109 -64 -109 -50 0 -89 22 -71 40 9 9 18 8
38 -5 49 -33 102 6 76 55 -7 13 -21 20 -40 20 -20 0 -30 5 -30 15 0 9 9 15 24
15 30 0 49 22 44 52 -4 28 -48 37 -85 17 -32 -17 -43 -1 -14 22 29 24 82 24
111 1z m200 -57 c0 -68 2 -75 20 -75 11 0 20 -7 20 -15 0 -8 -9 -15 -20 -15
-14 0 -20 -7 -20 -21 0 -12 8 -23 20 -26 37 -10 20 -23 -30 -23 -48 0 -66 12
-35 24 8 3 15 15 15 26 0 17 -6 20 -50 20 -28 0 -50 5 -50 11 0 20 102 169
116 169 11 0 14 -17 14 -75z m230 45 c0 -31 -16 -41 -26 -15 -4 10 -20 15 -45
15 -37 0 -39 -2 -39 -30 0 -28 2 -30 39 -30 57 0 86 -27 86 -80 0 -32 -6 -47
-24 -61 -30 -25 -92 -25 -122 0 -33 26 -16 39 22 17 38 -22 76 -14 89 19 20
54 -26 94 -91 80 -29 -6 -29 -6 -29 38 0 73 4 77 76 77 l64 0 0 -30z m191 20
c10 -6 19 -17 19 -25 0 -17 -16 -20 -25 -5 -3 6 -19 10 -35 10 -31 0 -60 -30
-60 -62 0 -15 4 -15 30 -6 81 28 142 -58 89 -126 -16 -21 -29 -26 -64 -26 -64
0 -85 30 -85 122 0 64 3 72 29 99 31 30 67 37 102 19z m359 -4 c0 -8 -19 -63
-42 -122 -38 -95 -59 -127 -74 -112 -2 3 16 53 40 112 l45 106 -50 0 c-37 0
-49 -4 -49 -15 0 -8 -7 -15 -15 -15 -10 0 -15 10 -15 30 l0 30 80 0 c63 0 80
-3 80 -14z m180 -6 c24 -24 26 -57 3 -82 -14 -16 -15 -20 -1 -35 29 -33 30
-59 5 -89 -19 -21 -33 -28 -62 -28 -29 0 -43 7 -62 28 -25 30 -24 56 5 89 14
15 13 19 -1 35 -56 62 54 141 113 82z m185 14 c60 -23 60 -215 0 -238 -41 -15
-105 -3 -105 20 0 16 26 19 35 4 9 -14 38 -13 58 3 9 6 20 28 23 47 6 29 4 33
-7 23 -23 -22 -77 -16 -106 13 -21 21 -24 32 -19 62 9 58 63 88 121 66z m226
-13 c22 -17 24 -27 24 -104 0 -104 -14 -127 -80 -127 -66 0 -80 23 -80 127 0
77 2 87 24 104 13 10 38 19 56 19 18 0 43 -9 56 -19z m-793 -128 c2 -9 -10
-13 -42 -13 -35 0 -46 4 -46 16 0 12 9 14 42 12 23 -2 43 -9 46 -15z m-7207
-42 c31 -25 17 -38 -24 -23 -44 16 -62 15 -81 -4 -19 -19 -22 -124 -4 -142 16
-16 63 -15 88 0 15 10 22 10 32 0 21 -21 -18 -42 -76 -42 -75 0 -96 24 -96
112 0 60 3 72 25 93 31 32 101 35 136 6z m221 -11 c13 -16 18 -39 18 -87 0
-55 -4 -67 -25 -88 -32 -33 -110 -35 -142 -5 -45 41 -42 154 5 191 36 28 117
23 144 -11z m169 -50 l54 -81 3 63 c2 38 -1 64 -7 66 -6 2 -11 10 -11 18 0 10
12 14 40 14 29 0 40 -4 40 -15 0 -8 -4 -15 -10 -15 -6 0 -10 -40 -10 -100 0
-97 -1 -100 -22 -100 -17 0 -35 19 -73 77 l-50 77 -3 -58 c-2 -33 2 -64 7 -69
20 -20 11 -27 -34 -27 -42 0 -58 11 -35 25 15 9 13 172 -2 177 -21 7 2 28 31
28 23 0 36 -12 82 -80z m319 50 c0 -32 -26 -43 -36 -15 -4 8 -12 15 -20 15
-11 0 -14 -19 -14 -85 0 -50 4 -85 10 -85 6 0 10 -7 10 -15 0 -11 -11 -15 -40
-15 -29 0 -40 4 -40 15 0 8 5 15 10 15 6 0 10 35 10 85 0 66 -3 85 -14 85 -8
0 -16 -7 -20 -15 -10 -28 -36 -17 -36 15 l0 30 90 0 90 0 0 -30z m180 -69 c20
-52 42 -97 48 -99 7 -2 12 -10 12 -18 0 -10 -12 -14 -40 -14 -29 0 -40 4 -40
15 0 8 5 15 10 15 7 0 7 6 0 20 -8 14 -21 20 -46 20 -37 0 -56 -22 -35 -43 20
-20 12 -27 -34 -27 -32 0 -45 4 -45 14 0 8 6 16 14 19 20 8 73 160 58 165 -7
2 -12 10 -12 18 0 11 10 14 37 12 37 -3 37 -3 73 -97z m239 75 c23 -21 27 -56
10 -73 -8 -8 -7 -17 5 -34 40 -58 -3 -99 -105 -99 -63 0 -85 9 -59 25 6 3 10
44 10 91 0 49 -4 84 -10 84 -5 0 -10 7 -10 16 0 24 130 16 159 -10z m141 9 c0
-8 -4 -15 -10 -15 -6 0 -10 -35 -10 -84 0 -47 5 -88 10 -91 22 -13 8 -25 -30
-25 -29 0 -40 4 -40 15 0 8 5 15 10 15 6 0 10 35 10 85 0 50 -4 85 -10 85 -5
0 -10 7 -10 15 0 11 11 15 40 15 29 0 40 -4 40 -15z m110 0 c0 -8 -4 -15 -10
-15 -6 0 -10 -35 -10 -85 l0 -85 35 0 c25 0 35 4 35 16 0 28 35 11 38 -19 l3
-27 -85 0 c-78 0 -103 8 -76 25 6 3 10 44 10 91 0 49 -4 84 -10 84 -5 0 -10 7
-10 15 0 11 11 15 40 15 29 0 40 -4 40 -15z m190 0 c0 -8 -4 -15 -10 -15 -6 0
-10 -35 -10 -85 0 -50 4 -85 10 -85 6 0 10 -7 10 -15 0 -11 -11 -15 -40 -15
-29 0 -40 4 -40 15 0 8 5 15 10 15 6 0 10 35 10 85 0 50 -4 85 -10 85 -5 0
-10 7 -10 15 0 11 11 15 40 15 29 0 40 -4 40 -15z m179 4 c42 -15 51 -35 51
-113 0 -58 -3 -67 -26 -85 -22 -17 -41 -21 -100 -21 -68 0 -90 9 -64 25 15 9
13 172 -2 177 -6 2 -8 10 -4 16 9 15 102 16 145 1z m244 -89 c20 -52 42 -96
47 -98 6 -2 10 -10 10 -18 0 -10 -12 -14 -40 -14 -40 0 -49 7 -30 26 21 21 0
44 -40 44 -40 0 -61 -23 -40 -44 19 -19 10 -26 -35 -26 -45 0 -58 12 -31 27 8
4 27 43 44 86 26 67 28 78 15 86 -25 13 -4 32 30 29 30 -3 34 -8 70 -98z m226
89 c41 -15 51 -35 51 -109 0 -51 -4 -65 -25 -85 -21 -22 -33 -25 -100 -25 -68
0 -91 9 -65 25 6 3 10 44 10 91 0 49 -4 84 -10 84 -5 0 -10 7 -10 15 0 12 13
15 59 15 32 0 72 -5 90 -11z m261 -19 c0 -20 -5 -30 -15 -30 -8 0 -15 7 -15
15 0 11 -11 15 -40 15 -39 0 -40 -1 -40 -35 0 -38 15 -46 35 -18 17 23 35 7
35 -32 0 -39 -18 -55 -35 -32 -20 28 -35 20 -35 -18 0 -34 1 -35 40 -35 29 0
40 4 40 15 0 8 9 15 20 15 16 0 20 -7 20 -30 l0 -30 -95 0 c-86 0 -113 8 -85
25 15 9 13 172 -2 177 -6 2 -8 10 -4 16 5 8 37 12 92 12 l84 0 0 -30z"/>
<path d="M9729 6586 c-20 -14 -44 -37 -53 -51 -23 -35 -10 -45 57 -45 l47 0 0
60 c0 33 -3 60 -8 60 -4 0 -23 -11 -43 -24z"/>
<path d="M9800 6550 l0 -60 38 1 c20 1 48 4 61 8 l24 7 -33 37 c-18 21 -46 45
-61 53 l-29 15 0 -61z"/>
<path d="M9640 6568 c-29 -18 -53 -37 -52 -43 2 -12 52 -20 52 -8 0 5 15 26
34 46 18 20 31 37 27 37 -4 0 -31 -15 -61 -32z"/>
<path d="M9907 6555 c35 -43 65 -56 78 -36 6 11 -48 55 -88 70 -28 11 -27 10
10 -34z"/>
<path d="M9544 6475 c-20 -30 -43 -93 -44 -117 0 -15 9 -18 50 -18 47 0 50 2
50 26 0 14 5 45 11 70 13 51 14 49 -23 58 -22 5 -31 1 -44 -19z"/>
<path d="M9967 6493 c-11 -3 -16 -11 -13 -21 5 -15 26 -120 26 -128 0 -2 20
-4 45 -4 42 0 45 2 45 28 0 15 -11 51 -25 80 -24 52 -32 57 -78 45z"/>
<path d="M9631 6429 c-20 -91 -22 -89 69 -89 l80 0 0 60 c0 68 2 66 -82 73
l-57 5 -10 -49z"/>
<path d="M9853 6473 l-53 -4 0 -65 0 -64 79 0 78 0 -8 50 c-11 70 -18 90 -32
88 -7 -1 -36 -3 -64 -5z"/>
<path d="M9505 6273 c11 -61 42 -113 68 -113 39 0 48 12 37 50 -6 19 -10 50
-10 67 0 33 0 33 -51 33 l-51 0 7 -37z"/>
<path d="M9620 6283 c0 -16 5 -45 11 -65 11 -41 12 -42 97 -32 l52 7 0 58 0
59 -80 0 -80 0 0 -27z"/>
<path d="M9800 6250 l0 -60 43 0 c23 0 52 -3 64 -6 26 -7 36 13 46 84 l5 42
-79 0 -79 0 0 -60z"/>
<path d="M9975 6273 c-3 -21 -9 -52 -14 -69 -8 -30 -6 -32 26 -42 l35 -11 24
52 c13 29 24 64 24 80 0 25 -3 27 -45 27 -43 0 -44 -1 -50 -37z"/>
<path d="M9677 6161 l-28 -6 28 -37 c28 -36 71 -68 92 -68 7 0 11 23 11 60 l0
60 -37 -1 c-21 -1 -51 -4 -66 -8z"/>
<path d="M9800 6105 l0 -67 33 20 c36 23 94 89 85 98 -3 3 -31 8 -62 11 l-56
6 0 -68z"/>
<path d="M9597 6143 c-10 -3 -16 -10 -14 -16 5 -16 76 -64 107 -72 l25 -6 -21
18 c-11 10 -31 33 -43 51 -12 17 -25 31 -29 31 -4 -1 -15 -3 -25 -6z"/>
<path d="M9940 6142 c0 -5 -16 -27 -36 -50 -39 -46 -38 -50 9 -26 49 25 90 66
75 76 -17 10 -48 10 -48 0z"/>
<path d="M12072 6388 c-7 -7 -12 -30 -12 -53 0 -46 13 -65 47 -65 33 0 57 41
49 84 -8 44 -55 63 -84 34z"/>
<path d="M13782 6388 c-7 -7 -12 -30 -12 -53 0 -46 13 -65 45 -65 32 0 45 19
45 65 0 46 -13 65 -45 65 -12 0 -26 -5 -33 -12z"/>
<path d="M11354 6375 c-9 -38 2 -55 35 -55 36 0 53 24 40 58 -13 33 -66 31
-75 -3z"/>
<path d="M11358 6239 c-24 -13 -12 -37 22 -44 32 -7 70 9 70 29 0 25 -59 35
-92 15z"/>
<path d="M11674 6315 c-9 -22 3 -45 21 -45 28 0 55 20 55 40 0 16 -7 20 -35
20 -22 0 -38 -6 -41 -15z"/>
<path d="M12272 6388 c-25 -25 -13 -38 33 -38 49 0 50 1 35 31 -12 21 -50 25
-68 7z"/>
<path d="M12797 6394 c-4 -4 -7 -16 -7 -26 0 -14 8 -18 41 -18 36 0 40 2 37
23 -2 16 -11 23 -33 25 -17 2 -34 0 -38 -4z"/>
<path d="M13222 6388 c-30 -30 -5 -118 34 -118 37 0 54 20 54 63 0 49 -13 67
-50 67 -14 0 -31 -5 -38 -12z"/>
<path d="M5640 6140 l0 -181 53 34 c28 19 152 98 275 176 122 79 222 145 222
147 0 2 -124 4 -275 4 l-275 0 0 -180z"/>
<path d="M5433 6027 l45 -62 -45 -63 -45 -62 86 0 86 0 0 125 0 125 -86 0 -86
0 45 -63z"/>
<path d="M6460 5965 l0 -125 86 0 c95 0 92 -5 37 71 -18 26 -33 50 -33 54 0 4
15 28 33 54 55 76 58 71 -37 71 l-86 0 0 -125z"/>
<path d="M6075 5834 c-165 -106 -301 -197 -303 -202 -4 -12 96 -85 181 -132
l57 -32 58 32 c136 77 251 178 292 256 18 36 20 56 18 155 l-3 115 -300 -192z"/>
<path d="M11012 5478 c-17 -17 -15 -58 3 -64 23 -9 45 15 45 47 0 31 -25 40
-48 17z"/>
<path d="M11942 5468 c-7 -7 -12 -30 -12 -53 0 -46 13 -65 45 -65 32 0 45 19
45 65 0 46 -13 65 -45 65 -12 0 -26 -5 -33 -12z"/>
<path d="M13653 5473 c-7 -2 -15 -20 -19 -39 -8 -43 16 -84 49 -84 34 0 47 19
47 65 0 23 -5 46 -12 53 -12 12 -43 15 -65 5z"/>
<path d="M10492 5468 c-30 -30 -5 -118 34 -118 37 0 54 20 54 63 0 49 -13 67
-50 67 -14 0 -31 -5 -38 -12z"/>
<path d="M10754 5395 c-8 -19 13 -45 36 -45 19 0 50 30 50 48 0 18 -79 15 -86
-3z"/>
<path d="M11224 5466 c-3 -8 -4 -25 -2 -38 2 -19 9 -23 38 -23 33 0 35 2 35
35 0 32 -3 35 -33 38 -21 2 -34 -2 -38 -12z"/>
<path d="M11228 5323 c-26 -7 -22 -32 6 -44 30 -14 75 -4 83 17 10 28 -35 41
-89 27z"/>
<path d="M11542 5398 c-15 -15 3 -48 28 -48 22 0 50 25 50 46 0 17 -61 19 -78
2z"/>
<path d="M12130 5461 c-15 -30 -14 -31 35 -31 30 0 45 4 45 13 0 37 -62 51
-80 18z"/>
<path d="M12660 5461 c-15 -30 -14 -31 35 -31 30 0 45 4 45 13 0 37 -62 51
-80 18z"/>
<path d="M13092 5468 c-7 -7 -12 -30 -12 -53 0 -46 13 -65 46 -65 46 0 70 61
44 111 -12 22 -59 26 -78 7z"/>
<path d="M4816 5037 c-25 -25 -26 -32 -26 -129 0 -119 10 -143 65 -154 41 -7
91 10 105 37 6 10 10 62 10 117 0 121 -11 141 -82 149 -40 5 -50 2 -72 -20z"/>
<path d="M4350 5000 l0 -50 39 0 c40 0 71 25 71 57 0 23 -32 43 -71 43 l-39 0
0 -50z"/>
<path d="M4350 4815 l0 -55 43 0 c30 0 49 6 60 18 39 43 7 92 -61 92 l-42 0 0
-55z"/>
<path d="M5330 4990 l0 -60 43 0 c50 0 77 22 77 63 0 38 -25 57 -76 57 l-44 0
0 -60z"/>
<path d="M9666 4589 c-14 -17 -26 -38 -26 -48 0 -48 124 -179 206 -219 27 -12
35 -12 59 -1 16 8 33 22 39 32 9 14 6 22 -19 42 -25 20 -37 24 -68 19 -34 -5
-43 -2 -74 27 -48 47 -56 64 -42 90 8 17 8 27 -2 46 -23 43 -44 47 -73 12z"/>
<path d="M11418 4527 l-27 -42 25 -3 c34 -5 36 -1 32 47 l-3 41 -27 -43z"/>
<path d="M11818 4499 c-24 -13 -23 -54 2 -79 37 -37 83 -14 83 39 0 47 -41 66
-85 40z"/>
<path d="M12352 4588 c-19 -19 -15 -34 14 -53 25 -16 27 -16 48 4 16 17 18 25
10 39 -14 21 -55 27 -72 10z"/>
<path d="M12356 4481 c-31 -34 -14 -81 29 -81 50 0 61 56 16 83 -27 16 -29 16
-45 -2z"/>
<path d="M12553 4592 c-19 -12 -25 -55 -10 -76 27 -37 97 -16 97 30 0 42 -51
69 -87 46z"/>
<path d="M12759 4584 c-9 -11 -14 -41 -14 -86 0 -57 3 -72 19 -84 24 -17 37
-18 60 -1 23 17 33 122 14 157 -16 31 -59 38 -79 14z"/>
<path d="M4958 4419 c-14 -8 -18 -24 -18 -72 0 -71 10 -87 55 -87 17 0 36 5
43 12 18 18 15 123 -4 142 -18 18 -51 20 -76 5z"/>
<path d="M5673 4365 c-11 -34 -10 -35 14 -35 21 0 23 3 17 23 -14 46 -20 48
-31 12z"/>
<path d="M5887 4423 c-4 -3 -7 -19 -7 -35 0 -27 3 -29 31 -26 43 4 61 34 35
54 -21 15 -48 18 -59 7z"/>
<path d="M5880 4295 c0 -33 2 -35 35 -35 39 0 59 24 44 52 -6 12 -21 18 -44
18 -33 0 -35 -2 -35 -35z"/>
<path d="M6520 4346 l0 -86 33 0 c46 0 57 15 57 80 0 68 -7 79 -53 87 l-37 6
0 -87z"/>
<path d="M6772 4362 c-10 -30 -10 -32 14 -32 27 0 31 17 11 45 -13 17 -15 16
-25 -13z"/>
<path d="M6980 4345 l0 -85 34 0 c50 0 66 21 66 85 0 60 -21 85 -72 85 l-28 0
0 -85z"/>
</g>
</svg>
