<?xml version="1.0" standalone="no"?>
<!DOCTYPE svg PUBLIC "-//W3C//DTD SVG 20010904//EN"
 "http://www.w3.org/TR/2001/REC-SVG-20010904/DTD/svg10.dtd">
<svg version="1.0" xmlns="http://www.w3.org/2000/svg"
 width="2000.000000pt" height="2000.000000pt" viewBox="0 0 2000.000000 2000.000000"
 preserveAspectRatio="xMidYMid meet">

<g transform="translate(0.000000,2000.000000) scale(0.100000,-0.100000)"
fill="#000000" stroke="none">
<path d="M7085 18089 c-225 -33 -441 -139 -606 -296 -190 -180 -303 -394 -344
-647 -12 -72 -15 -202 -15 -618 0 -525 0 -528 -20 -528 -12 0 -32 -11 -46 -25
-24 -24 -25 -29 -22 -137 2 -84 6 -112 16 -110 7 1 12 -9 11 -25 0 -16 -3 -22
-6 -15 -15 36 -23 -15 -23 -141 0 -158 7 -180 60 -192 l30 -7 0 -219 0 -219
-23 0 c-13 0 -33 -11 -45 -23 -22 -23 -22 -28 -20 -268 2 -189 6 -243 16 -242
8 2 12 -10 12 -35 0 -24 -3 -32 -9 -24 -16 26 -21 -49 -21 -314 0 -250 1 -265
20 -284 11 -11 31 -22 45 -26 l25 -6 0 -139 c0 -76 -3 -138 -7 -138 -24 4 -45
-3 -63 -21 -19 -19 -20 -33 -20 -264 0 -139 4 -247 9 -251 5 -3 12 3 14 12 3
10 5 -1 6 -25 0 -24 -3 -41 -8 -38 -17 11 -21 -42 -21 -310 0 -270 0 -271 23
-292 13 -12 33 -22 45 -22 l22 0 0 -4449 c0 -4863 -4 -4521 56 -4706 57 -174
146 -318 279 -450 183 -183 408 -293 660 -324 58 -7 357 -11 848 -11 498 0
757 -3 757 -10 0 -5 -5 -10 -11 -10 -5 0 -7 -4 -4 -10 3 -6 -4 -10 -16 -10
-13 0 -19 -4 -13 -8 10 -10 260 -33 409 -38 55 -1 161 -6 235 -9 165 -7 1045
-8 1300 -1 178 5 340 13 445 20 28 2 100 7 160 11 61 4 117 11 125 16 12 6 10
8 -8 9 -13 0 -20 4 -17 10 4 6 -36 11 -112 12 -116 2 -117 2 -38 8 44 3 429 7
856 8 428 1 811 7 853 12 483 61 850 384 978 862 l23 83 2 4678 c3 4200 5
4677 19 4677 8 0 26 11 39 25 l25 24 0 434 c0 430 -5 542 -21 515 -6 -8 -9 5
-9 35 0 27 4 46 9 43 5 -3 12 1 15 10 3 9 6 193 6 409 l0 394 -26 20 c-15 12
-33 21 -40 21 -11 0 -14 227 -17 1323 -4 1457 1 1351 -67 1538 -119 330 -402
595 -741 692 -168 49 -169 49 -1704 43 -792 -3 -1473 -8 -1512 -11 l-73 -7 0
-38 c0 -34 3 -39 28 -43 19 -3 14 -4 -15 -6 -76 -2 -46 -20 40 -24 45 -1 -24
-3 -153 -4 -164 0 -214 2 -167 8 63 7 103 19 64 19 -13 0 -17 10 -17 44 0 41
-2 44 -32 51 -48 11 -2382 15 -2453 4z m2432 -95 c-3 -3 -12 -4 -19 -1 -8 3
-5 6 6 6 11 1 17 -2 13 -5z m-1493 -287 c37 -49 52 -91 70 -197 31 -181 109
-291 238 -337 51 -17 127 -18 1673 -18 1536 0 1623 1 1672 18 139 49 206 146
244 356 15 85 25 114 54 158 l36 54 462 -3 462 -3 80 -28 c115 -41 209 -100
296 -186 85 -86 145 -181 186 -297 l28 -79 0 -6965 0 -6965 -28 -80 c-86 -244
-279 -425 -527 -492 -62 -17 -218 -18 -2965 -18 -2734 0 -2904 1 -2965 18
-148 40 -316 149 -403 262 -56 73 -125 220 -142 300 -13 61 -15 959 -15 6976
l0 6905 21 85 c59 238 216 419 448 518 108 46 149 49 613 50 l437 1 25 -33z
m-1713 -438 c-5 -13 -10 -19 -10 -12 -1 15 10 45 15 40 3 -2 0 -15 -5 -28z
m-8 -7111 c1 -3881 -1 -7051 -5 -7045 -28 45 -29 300 -25 7122 2 4104 7 6962
12 6980 5 17 10 23 12 15 2 -8 4 -3190 6 -7072z m7432 37 c0 -5800 -2 -7000
-13 -7048 -8 -32 -14 -57 -15 -55 -1 2 0 3187 1 7078 3 5378 7 7068 15 7045 9
-23 12 -1744 12 -7020z m-7615 5493 c0 -5 -6 -8 -14 -8 -18 0 -29 27 -13 33
12 4 27 -10 27 -25z m-8 -1361 c-3 -18 -7 -25 -10 -17 -3 8 -11 19 -18 23 -20
11 -17 35 4 39 23 5 29 -6 24 -45z m7809 -682 c5 14 8 5 8 -30 1 -36 -2 -46
-9 -35 -8 12 -10 10 -10 -10 0 -20 -2 -22 -10 -10 -11 18 -13 61 -3 87 7 17 8
17 12 -2 l4 -20 8 20z m-7808 -811 c-7 -18 -43 -4 -43 16 0 10 8 20 18 22 18
4 32 -19 25 -38z m3705 -10431 c-16 -2 -28 -9 -28 -14 0 -5 -7 -9 -15 -9 -8 0
-15 5 -15 10 0 6 -5 10 -11 10 -13 0 -39 -25 -39 -39 0 -12 37 -24 50 -16 16
10 52 -5 47 -19 -4 -9 11 -13 51 -15 31 -1 59 -4 61 -7 7 -6 -381 -5 -406 2
-26 7 -32 34 -8 34 8 0 15 -6 15 -13 0 -8 7 -14 15 -14 8 0 15 6 15 13 0 8 11
16 25 20 27 7 35 34 10 34 -8 0 -15 4 -15 9 0 5 -12 12 -27 14 -16 2 46 4 137
4 91 0 153 -2 138 -4z m52 -73 c0 -5 -7 -10 -15 -10 -8 0 -15 5 -15 10 0 6 7
10 15 10 8 0 15 -4 15 -10z m-7 -57 c-67 -2 -179 -2 -250 0 -70 1 -15 3 122 3
138 0 195 -2 128 -3z m-983 -23 c0 -5 -18 -10 -40 -10 -22 0 -40 5 -40 10 0 6
18 10 40 10 22 0 40 -4 40 -10z"/>
<path d="M7374 17349 c-15 -16 -16 -24 -6 -39 7 -12 8 -21 2 -25 -6 -3 -10
-20 -10 -36 0 -36 37 -55 79 -41 29 9 41 53 21 77 -7 9 -8 15 0 20 17 10 11
44 -9 55 -30 16 -56 12 -77 -11z m66 -25 c0 -19 -28 -30 -42 -16 -8 8 -8 15 1
26 14 17 41 10 41 -10z m-2 -72 c3 -18 -1 -22 -22 -22 -19 0 -26 5 -26 18 0
39 43 43 48 4z"/>
<path d="M7582 17354 c-12 -8 -22 -19 -22 -25 0 -14 22 -11 41 7 19 17 39 11
39 -11 0 -8 -8 -18 -17 -24 -17 -9 -17 -11 1 -24 12 -9 17 -20 13 -31 -8 -21
-36 -21 -53 1 -16 22 -32 8 -18 -15 22 -34 98 -27 107 10 4 14 0 29 -10 40
-10 11 -12 18 -5 18 20 0 14 48 -7 60 -27 14 -43 13 -69 -6z"/>
<path d="M7720 17350 c-24 -24 -27 -86 -4 -118 20 -29 79 -31 94 -3 17 33 12
106 -8 124 -25 23 -58 21 -82 -3z m58 -12 c19 -19 15 -97 -4 -105 -19 -7 -44
21 -44 48 0 25 18 69 28 69 4 0 13 -5 20 -12z"/>
<path d="M12280 17285 c0 -77 2 -85 19 -85 17 0 20 9 23 63 4 87 0 107 -23
107 -17 0 -19 -8 -19 -85z"/>
<path d="M12443 17350 c-43 -19 -53 -36 -31 -58 8 -8 18 -6 41 10 41 30 116
30 156 0 28 -20 29 -20 45 -3 20 21 11 32 -47 56 -49 20 -113 19 -164 -5z"/>
<path d="M12730 17285 l0 -65 150 0 150 0 0 65 0 65 -150 0 -150 0 0 -65z"/>
<path d="M12210 17271 c0 -69 1 -71 25 -71 26 0 26 1 23 68 -3 61 -5 67 -25
70 -22 3 -23 0 -23 -67z"/>
<path d="M7500 17315 c0 -8 7 -15 15 -15 8 0 15 7 15 15 0 8 -7 15 -15 15 -8
0 -15 -7 -15 -15z"/>
<path d="M12140 17255 c0 -52 1 -55 25 -55 24 0 25 3 25 55 0 52 -1 55 -25 55
-24 0 -25 -3 -25 -55z"/>
<path d="M12474 17300 c-30 -12 -38 -28 -24 -45 10 -12 16 -12 44 1 29 14 36
14 68 1 33 -14 38 -14 50 0 30 37 -74 69 -138 43z"/>
<path d="M13040 17285 c0 -16 6 -25 15 -25 9 0 15 9 15 25 0 16 -6 25 -15 25
-9 0 -15 -9 -15 -25z"/>
<path d="M12077 17273 c-4 -3 -7 -21 -7 -40 0 -29 3 -33 25 -33 23 0 25 4 25
40 0 32 -4 40 -18 40 -10 0 -22 -3 -25 -7z"/>
<path d="M12490 17240 c-12 -7 -12 -12 -2 -22 28 -28 106 -9 87 22 -8 13 -65
13 -85 0z"/>
<path d="M7500 17225 c0 -8 7 -15 15 -15 8 0 15 7 15 15 0 8 -7 15 -15 15 -8
0 -15 -7 -15 -15z"/>
<path d="M8680 14840 l0 -510 119 0 120 0 3 219 c3 204 5 222 24 247 49 66
117 84 183 49 55 -28 61 -58 61 -300 l0 -215 120 0 120 0 0 268 c0 309 -5 338
-75 407 -55 56 -124 79 -215 73 -78 -6 -159 -44 -193 -92 l-22 -31 -5 195 -5
195 -117 3 -118 3 0 -511z"/>
<path d="M8125 15294 c-183 -22 -335 -116 -407 -250 -103 -191 -64 -443 92
-587 177 -164 437 -181 649 -43 36 24 74 52 84 64 18 20 17 21 -53 95 l-71 76
-57 -40 c-132 -93 -273 -88 -369 13 -50 52 -73 112 -73 194 -1 246 267 352
458 180 l40 -36 72 86 73 86 -39 34 c-103 87 -275 143 -399 128z"/>
<path d="M9801 15069 c-59 -11 -199 -58 -206 -69 -4 -6 49 -146 60 -158 1 -1
38 9 81 24 104 35 210 32 249 -6 13 -14 27 -40 31 -57 l7 -33 -135 0 c-168 0
-225 -15 -284 -74 -107 -106 -74 -281 66 -351 81 -41 242 -25 308 30 17 14 33
25 36 25 3 0 6 -16 6 -35 l0 -35 121 0 120 0 -3 278 c-3 272 -3 278 -28 326
-33 64 -81 102 -159 126 -67 21 -188 25 -270 9z m219 -460 c0 -71 -66 -125
-153 -123 -42 0 -54 5 -74 28 -29 34 -30 73 -1 103 20 21 30 23 125 23 l103 0
0 -31z"/>
<path d="M10830 15071 c-52 -17 -108 -51 -134 -81 -28 -34 -30 -32 -26 43 l2
37 -126 0 -126 0 0 -370 0 -370 125 0 125 0 0 211 c0 236 6 262 65 299 38 24
104 26 144 5 54 -28 61 -60 61 -299 l0 -216 120 0 120 0 0 265 c0 217 -3 273
-16 312 -36 107 -116 164 -238 169 -39 2 -82 0 -96 -5z"/>
<path d="M11527 15070 c-93 -24 -165 -83 -206 -170 -36 -79 -42 -212 -12 -308
42 -140 146 -216 296 -216 86 0 126 14 178 62 l27 26 0 -58 c0 -73 -20 -110
-72 -137 -73 -37 -215 -22 -304 32 l-31 18 -40 -84 -40 -85 24 -16 c45 -29
149 -63 230 -74 192 -26 375 47 442 178 35 68 41 145 41 494 l0 338 -125 0
-125 0 0 -41 0 -41 -31 26 c-17 15 -47 33 -65 41 -45 19 -140 26 -187 15z
m213 -195 c63 -32 92 -166 52 -245 -53 -106 -194 -106 -256 0 -27 44 -28 145
-3 184 52 79 127 102 207 61z"/>
<path d="M12460 15067 c-197 -45 -309 -220 -279 -434 24 -171 133 -277 314
-305 130 -20 265 13 354 87 17 15 31 32 31 39 0 6 -25 36 -55 66 l-55 55 -28
-18 c-116 -76 -239 -66 -299 25 -14 21 -23 41 -20 44 3 4 119 6 257 5 203 -1
252 1 256 12 3 8 0 52 -5 98 -20 161 -97 271 -221 314 -62 22 -183 27 -250 12z
m176 -182 c31 -20 64 -73 64 -102 0 -23 -1 -23 -140 -23 -158 0 -159 1 -117
74 41 72 127 95 193 51z"/>
<path d="M8073 14119 c-226 -38 -393 -215 -410 -436 -18 -230 115 -429 337
-504 80 -27 247 -32 325 -10 228 64 367 244 367 476 0 141 -45 247 -144 342
-120 113 -295 162 -475 132z m212 -228 c190 -86 205 -373 26 -487 -58 -36
-158 -45 -225 -20 -98 37 -166 143 -165 256 0 115 48 198 141 244 65 32 161
35 223 7z"/>
<path d="M10095 13886 c-28 -12 -65 -39 -82 -59 l-32 -37 -3 53 -3 52 -122 3
-123 3 0 -371 0 -371 123 3 122 3 5 212 c5 194 7 214 26 239 31 42 99 74 156
74 l48 0 0 110 0 110 -32 0 c-18 0 -56 -11 -83 -24z"/>
<path d="M8800 13635 c0 -243 2 -269 21 -320 23 -62 62 -105 123 -138 32 -17
58 -22 116 -22 89 0 155 26 206 81 l34 35 0 -56 0 -56 123 3 122 3 3 368 2
367 -125 0 -125 0 0 -205 c0 -230 -5 -255 -62 -299 -66 -50 -152 -27 -184 50
-10 25 -14 88 -14 244 l0 210 -120 0 -120 0 0 -265z"/>
<path d="M7722 12473 l3 -478 245 0 c200 1 257 4 310 18 203 54 332 194 359
387 29 213 -64 404 -240 493 -102 50 -151 57 -426 57 l-253 0 2 -477z m524
250 c154 -81 193 -307 77 -443 -57 -66 -97 -80 -235 -80 l-118 0 0 276 0 276
118 -4 c95 -3 125 -8 158 -25z"/>
<path d="M9630 12805 l0 -105 -50 0 -50 0 0 -80 0 -80 50 0 50 0 0 -182 c0
-204 7 -242 53 -295 48 -54 107 -77 197 -76 87 1 183 29 188 55 2 9 -7 48 -19
88 -19 64 -24 71 -43 65 -52 -15 -92 -16 -111 -2 -18 14 -20 29 -23 181 l-3
166 95 0 96 0 0 80 0 80 -95 0 -95 0 0 105 0 105 -120 0 -120 0 0 -105z"/>
<path d="M9005 12740 c-58 -9 -207 -53 -233 -69 -9 -5 -5 -26 20 -87 17 -43
32 -80 33 -81 0 -1 29 9 63 23 125 50 245 42 283 -20 38 -62 35 -63 -128 -68
-124 -4 -156 -9 -198 -27 -97 -43 -129 -92 -129 -196 0 -149 88 -228 253 -228
82 0 132 16 187 58 l33 25 3 -37 3 -38 115 0 115 0 0 280 c0 268 -1 282 -22
321 -31 58 -93 110 -152 128 -67 20 -173 27 -246 16z m185 -471 c0 -35 -6 -47
-35 -75 -97 -91 -261 -29 -204 77 16 30 45 38 147 38 l92 1 0 -41z"/>
<path d="M10383 12726 c-154 -50 -241 -167 -251 -337 -10 -173 61 -302 200
-364 152 -68 391 -34 489 71 l24 26 -63 60 c-61 57 -65 59 -85 44 -79 -57
-168 -71 -234 -37 -43 21 -83 68 -83 95 0 14 28 16 256 16 l257 0 -7 85 c-8
111 -36 182 -97 249 -70 77 -126 99 -259 103 -69 2 -119 -2 -147 -11z m197
-169 c31 -16 70 -73 70 -103 l0 -24 -140 0 c-90 0 -140 4 -140 10 0 26 44 93
73 110 36 23 100 26 137 7z"/>
<path d="M8105 11170 c-3 -5 -1 -10 4 -10 6 0 11 5 11 10 0 6 -2 10 -4 10 -3
0 -8 -4 -11 -10z"/>
<path d="M8657 11173 c-4 -3 -7 -13 -7 -22 1 -13 3 -13 11 2 11 19 8 33 -4 20z"/>
<path d="M8725 11170 c-3 -5 -1 -10 4 -10 6 0 11 5 11 10 0 6 -2 10 -4 10 -3
0 -8 -4 -11 -10z"/>
<path d="M8758 11173 c6 -2 18 -2 25 0 6 3 1 5 -13 5 -14 0 -19 -2 -12 -5z"/>
<path d="M8813 11173 c9 -2 23 -2 30 0 6 3 -1 5 -18 5 -16 0 -22 -2 -12 -5z"/>
<path d="M8937 11173 c-4 -3 -7 -11 -7 -17 0 -6 5 -5 12 2 6 6 9 14 7 17 -3 3
-9 2 -12 -2z"/>
<path d="M9899 11165 c18 -8 36 -15 40 -15 13 1 -45 29 -59 29 -8 0 0 -6 19
-14z"/>
<path d="M10188 11173 c6 -2 18 -2 25 0 6 3 1 5 -13 5 -14 0 -19 -2 -12 -5z"/>
<path d="M10375 11170 c-3 -5 -1 -10 4 -10 6 0 11 5 11 10 0 6 -2 10 -4 10 -3
0 -8 -4 -11 -10z"/>
<path d="M7710 11155 c0 -8 4 -15 8 -15 5 0 9 7 9 15 0 8 -4 15 -9 15 -4 0 -8
-7 -8 -15z"/>
<path d="M8377 11146 c3 -15 10 -29 15 -32 6 -4 7 2 3 17 -10 35 -23 45 -18
15z"/>
<path d="M9430 11159 c0 -5 5 -7 10 -4 6 3 10 8 10 11 0 2 -4 4 -10 4 -5 0
-10 -5 -10 -11z"/>
<path d="M9800 11155 c-7 -9 -8 -15 -2 -15 5 0 12 7 16 15 3 8 4 15 2 15 -2 0
-9 -7 -16 -15z"/>
<path d="M9316 11148 c3 -5 10 -6 15 -3 13 9 11 12 -6 12 -8 0 -12 -4 -9 -9z"/>
<path d="M8724 11129 c0 -10 4 -19 8 -19 4 0 8 6 8 14 0 8 -4 17 -8 20 -4 2
-8 -4 -8 -15z"/>
<path d="M9574 11123 c9 -17 21 -35 27 -39 13 -8 -1 21 -26 51 -15 19 -15 18
-1 -12z"/>
<path d="M10277 11126 c20 -26 27 -28 17 -3 -3 8 -12 18 -20 21 -11 4 -10 0 3
-18z"/>
<path d="M9352 11115 c6 -14 13 -24 14 -22 6 6 -9 47 -17 47 -5 0 -3 -11 3
-25z"/>
<path d="M9691 11124 c0 -11 3 -14 6 -6 3 7 2 16 -1 19 -3 4 -6 -2 -5 -13z"/>
<path d="M10106 11124 c-9 -24 -2 -26 12 -4 7 11 8 20 3 20 -5 0 -12 -7 -15
-16z"/>
<path d="M7713 11040 c0 -47 2 -66 4 -42 2 23 2 61 0 85 -2 23 -4 4 -4 -43z"/>
<path d="M8013 11040 c0 -47 2 -66 4 -42 2 23 2 61 0 85 -2 23 -4 4 -4 -43z"/>
<path d="M9107 11099 c4 -13 8 -18 11 -10 2 7 -1 18 -6 23 -8 8 -9 4 -5 -13z"/>
<path d="M10370 11104 c0 -8 5 -12 10 -9 6 4 8 11 5 16 -9 14 -15 11 -15 -7z"/>
<path d="M8540 11100 c0 -5 5 -10 11 -10 5 0 7 5 4 10 -3 6 -8 10 -11 10 -2 0
-4 -4 -4 -10z"/>
<path d="M9765 11100 c-3 -5 -1 -10 4 -10 6 0 11 5 11 10 0 6 -2 10 -4 10 -3
0 -8 -4 -11 -10z"/>
<path d="M7847 11032 c3 -37 7 -69 10 -72 3 -3 3 18 1 47 -3 29 -2 56 3 60 4
4 1 13 -6 20 -11 10 -12 0 -8 -55z"/>
<path d="M8726 11065 c8 -50 14 -58 14 -19 0 16 -5 36 -11 44 -7 11 -8 4 -3
-25z"/>
<path d="M8401 11080 c0 -8 4 -24 9 -35 5 -13 9 -14 9 -5 0 8 -4 24 -9 35 -5
13 -9 14 -9 5z"/>
<path d="M9431 11074 c0 -11 3 -14 6 -6 3 7 2 16 -1 19 -3 4 -6 -2 -5 -13z"/>
<path d="M7916 11072 c-2 -4 12 -6 32 -4 56 5 62 10 15 11 -23 1 -44 -3 -47
-7z"/>
<path d="M8105 11070 c3 -5 8 -10 11 -10 2 0 4 5 4 10 0 6 -5 10 -11 10 -5 0
-7 -4 -4 -10z"/>
<path d="M8148 11073 c7 -3 16 -2 19 1 4 3 -2 6 -13 5 -11 0 -14 -3 -6 -6z"/>
<path d="M8758 11073 c6 -2 18 -2 25 0 6 3 1 5 -13 5 -14 0 -19 -2 -12 -5z"/>
<path d="M8808 11073 c6 -2 18 -2 25 0 6 3 1 5 -13 5 -14 0 -19 -2 -12 -5z"/>
<path d="M9627 11050 c10 -11 19 -20 21 -20 1 0 -2 9 -8 20 -6 11 -15 20 -20
20 -6 0 -2 -9 7 -20z"/>
<path d="M10091 11060 c0 -8 4 -22 9 -30 12 -18 12 -2 0 25 -6 13 -9 15 -9 5z"/>
<path d="M10301 11063 c-1 -6 -4 -20 -7 -30 -5 -17 -5 -17 6 0 6 10 9 23 6 30
-3 9 -5 9 -5 0z"/>
<path d="M8107 11043 c-2 -5 0 -19 4 -33 7 -23 7 -22 6 8 -1 33 -3 37 -10 25z"/>
<path d="M9103 11043 c4 -3 1 -13 -6 -22 -11 -14 -10 -14 5 -2 16 12 16 31 1
31 -4 0 -3 -3 0 -7z"/>
<path d="M9181 11034 c0 -11 3 -14 6 -6 3 7 2 16 -1 19 -3 4 -6 -2 -5 -13z"/>
<path d="M9766 11035 c4 -8 10 -15 15 -15 4 0 6 7 3 15 -4 8 -10 15 -15 15 -4
0 -6 -7 -3 -15z"/>
<path d="M10371 11003 c1 -53 6 -49 11 10 2 20 0 37 -4 37 -4 0 -8 -21 -7 -47z"/>
<path d="M9340 11008 c-15 -21 -17 -28 -6 -19 16 13 41 51 33 51 -2 0 -14 -15
-27 -32z"/>
<path d="M9656 11007 c4 -10 15 -22 25 -28 16 -8 19 -6 19 13 0 18 -2 20 -10
8 -8 -13 -11 -12 -25 5 -12 17 -14 17 -9 2z"/>
<path d="M8431 10998 c-1 -21 15 -32 25 -17 4 7 3 9 -4 5 -6 -3 -13 2 -15 11
-4 16 -5 16 -6 1z"/>
<path d="M8720 10999 c0 -5 5 -7 10 -4 6 3 10 8 10 11 0 2 -4 4 -10 4 -5 0
-10 -5 -10 -11z"/>
<path d="M10115 11000 c3 -5 11 -10 16 -10 6 0 7 5 4 10 -3 6 -11 10 -16 10
-6 0 -7 -4 -4 -10z"/>
<path d="M10266 10993 c-6 -14 -5 -15 5 -6 7 7 10 15 7 18 -3 3 -9 -2 -12 -12z"/>
<path d="M8600 10991 c0 -7 -4 -9 -10 -6 -6 4 -7 -1 -3 -11 6 -15 7 -15 15 1
6 9 7 19 4 22 -3 4 -6 1 -6 -6z"/>
<path d="M9045 10985 c-16 -8 -23 -14 -14 -15 8 0 24 7 35 15 23 18 18 18 -21
0z"/>
<path d="M9796 10988 c3 -5 10 -6 15 -3 13 9 11 12 -6 12 -8 0 -12 -4 -9 -9z"/>
<path d="M9910 10983 c-14 -7 -18 -13 -10 -13 17 0 47 17 40 23 -3 2 -16 -2
-30 -10z"/>
<path d="M9826 10981 c-3 -4 6 -8 20 -9 13 -1 24 0 24 2 0 7 -40 14 -44 7z"/>
<path d="M8150 10974 c35 -7 98 -9 94 -2 -3 5 -29 7 -57 7 -29 -1 -45 -3 -37
-5z"/>
<path d="M8725 10970 c3 -5 14 -10 23 -10 15 0 15 2 2 10 -20 13 -33 13 -25 0z"/>
<path d="M8935 10970 c3 -5 11 -10 16 -10 6 0 7 5 4 10 -3 6 -11 10 -16 10 -6
0 -7 -4 -4 -10z"/>
<path d="M9238 10963 c7 -3 16 -2 19 1 4 3 -2 6 -13 5 -11 0 -14 -3 -6 -6z"/>
<path d="M9280 10580 c-23 -23 -26 -76 -7 -101 32 -43 108 -29 126 22 26 76
-63 135 -119 79z"/>
<path d="M7680 10245 l0 -286 63 3 62 3 5 179 5 180 65 -152 65 -152 49 2 50
3 61 142 c34 78 64 146 68 149 4 4 7 -74 7 -173 l0 -179 58 -1 c43 0 59 4 64
16 4 9 7 136 7 284 l1 267 -83 0 -83 0 -74 -165 c-40 -90 -76 -163 -78 -160
-3 2 -37 76 -77 162 l-71 158 -82 3 -82 3 0 -286z"/>
<path d="M10195 10430 c-85 -26 -155 -131 -155 -230 0 -105 72 -206 165 -231
66 -18 156 -7 204 24 153 102 153 313 -1 414 -34 23 -54 28 -112 30 -39 1 -84
-2 -101 -7z m133 -116 c30 -21 29 -64 -3 -94 -19 -18 -22 -26 -14 -37 15 -17
29 -17 29 2 0 19 9 19 35 -1 17 -12 18 -17 7 -35 -11 -18 -11 -24 4 -40 16
-18 17 -21 1 -36 -15 -16 -18 -15 -35 0 -14 13 -21 14 -30 5 -6 -6 -32 -11
-57 -12 -39 -1 -51 3 -71 27 -30 35 -30 58 0 94 17 20 21 34 15 48 -13 33 -10
45 16 70 28 29 70 32 103 9z"/>
<path d="M10267 10284 c-15 -15 -7 -45 11 -42 9 2 17 12 17 22 0 20 -16 31
-28 20z"/>
<path d="M10234 10155 c-8 -20 12 -44 34 -40 9 2 21 4 26 4 11 1 -34 51 -46
51 -5 0 -11 -7 -14 -15z"/>
<path d="M8540 10396 c-93 -18 -124 -32 -115 -54 4 -9 12 -30 17 -45 8 -23 15
-27 32 -23 108 31 149 31 180 0 9 -8 16 -23 16 -32 0 -15 -13 -17 -88 -18
-127 -1 -180 -34 -189 -117 -10 -88 49 -147 148 -147 43 0 65 6 93 25 l36 24
0 -23 c0 -23 3 -24 68 -22 l67 1 0 172 c0 158 -2 174 -21 200 -42 58 -134 80
-244 59z m130 -274 c0 -42 -33 -67 -86 -67 -48 0 -64 13 -64 52 0 31 25 42 93
43 56 0 57 0 57 -28z"/>
<path d="M9647 10399 c-129 -31 -190 -141 -160 -289 9 -47 87 -125 138 -139
85 -23 169 -11 238 35 l39 26 -37 38 -37 38 -32 -19 c-49 -30 -111 -25 -147
10 -16 16 -29 34 -29 40 0 7 51 11 155 11 124 0 155 3 155 14 0 43 -24 126
-46 159 -41 62 -151 98 -237 76z m96 -100 c23 -10 47 -46 47 -69 0 -6 -38 -10
-85 -10 -97 0 -106 10 -56 61 31 31 55 36 94 18z"/>
<path d="M8912 10183 l3 -218 65 0 65 0 5 126 c4 91 9 131 20 144 18 22 71 45
104 45 23 0 24 3 25 61 l0 61 -41 -5 c-27 -4 -51 -16 -74 -38 l-34 -33 0 37 0
37 -70 0 -70 0 2 -217z"/>
<path d="M9260 10180 l0 -220 70 0 70 0 0 220 0 220 -70 0 -70 0 0 -220z"/>
<path d="M8680 9520 l0 -300 70 0 70 0 0 120 c0 159 15 190 91 190 16 0 38 -9
49 -20 18 -18 20 -33 20 -155 l0 -135 70 0 70 0 0 160 c0 114 -4 170 -14 194
-38 91 -180 112 -258 38 l-27 -25 -3 114 -3 114 -67 3 -68 3 0 -301z"/>
<path d="M7712 9723 l3 -58 90 -1 90 -2 3 -141 c1 -81 -2 -149 -7 -160 -6 -10
-22 -21 -35 -23 -29 -6 -94 20 -115 45 -17 21 -23 17 -56 -39 -26 -44 -26 -46
-8 -66 54 -62 188 -86 268 -49 93 42 104 80 105 344 l0 207 -170 0 -171 0 3
-57z"/>
<path d="M8262 9642 c-101 -36 -147 -109 -140 -222 3 -57 9 -77 33 -112 101
-143 361 -120 421 37 25 68 16 163 -22 217 -57 83 -185 118 -292 80z m153
-114 c40 -57 46 -107 21 -157 -14 -26 -53 -51 -81 -51 -82 0 -127 121 -70 189
14 16 36 31 48 33 19 3 76 -7 82 -14z"/>
<path d="M9454 9649 c-16 -5 -41 -20 -54 -34 -30 -32 -39 -32 -37 3 2 27 2 27
-71 30 l-72 3 2 -213 3 -213 73 -3 72 -3 0 131 c0 126 1 132 25 155 16 17 35
25 57 25 67 0 78 -26 78 -184 l0 -126 70 0 70 0 0 157 c0 138 -2 162 -21 199
-32 68 -111 98 -195 73z"/>
<path d="M9997 9646 c-22 -8 -50 -24 -63 -37 l-24 -22 0 31 0 32 -70 0 -70 0
0 -215 0 -215 69 0 69 0 4 131 c3 129 3 131 31 155 34 29 76 31 108 5 23 -18
24 -26 27 -155 l4 -136 70 0 70 0 -4 168 c-3 167 -3 169 -31 205 -15 20 -36
41 -47 47 -34 18 -103 21 -143 6z"/>
<path d="M10258 9633 c5 -10 47 -106 92 -213 77 -182 82 -196 68 -220 -11 -19
-22 -25 -49 -24 -18 0 -41 3 -49 7 -11 5 -23 -7 -43 -39 -26 -44 -27 -47 -10
-60 33 -25 114 -37 160 -25 71 19 97 51 144 169 123 314 159 407 159 414 0 4
-30 8 -67 8 l-68 0 -45 -140 c-25 -76 -48 -136 -51 -132 -4 4 -28 67 -54 140
l-48 132 -74 0 c-67 0 -73 -2 -65 -17z"/>
<path d="M8505 8700 c3 -5 11 -10 16 -10 6 0 7 5 4 10 -3 6 -11 10 -16 10 -6
0 -7 -4 -4 -10z"/>
<path d="M8980 8700 c0 -5 5 -10 11 -10 5 0 7 5 4 10 -3 6 -8 10 -11 10 -2 0
-4 -4 -4 -10z"/>
<path d="M9083 8689 c-2 -23 3 -25 10 -4 4 8 3 16 -1 19 -4 3 -9 -4 -9 -15z"/>
<path d="M10190 8700 c0 -5 5 -10 11 -10 5 0 7 5 4 10 -3 6 -8 10 -11 10 -2 0
-4 -4 -4 -10z"/>
<path d="M11010 8700 c-8 -5 -10 -10 -5 -10 6 0 17 5 25 10 8 5 11 10 5 10 -5
0 -17 -5 -25 -10z"/>
<path d="M11230 8706 c0 -2 7 -7 16 -10 8 -3 12 -2 9 4 -6 10 -25 14 -25 6z"/>
<path d="M11276 8702 c-3 -4 4 -9 15 -9 23 -2 25 3 4 10 -8 4 -16 3 -19 -1z"/>
<path d="M8150 8679 c-6 -11 -10 -25 -8 -30 2 -5 8 4 15 21 13 34 9 40 -7 9z"/>
<path d="M8198 8693 c7 -3 16 -2 19 1 4 3 -2 6 -13 5 -11 0 -14 -3 -6 -6z"/>
<path d="M8550 8690 c0 -5 5 -10 11 -10 5 0 7 5 4 10 -3 6 -8 10 -11 10 -2 0
-4 -4 -4 -10z"/>
<path d="M9468 8693 c7 -3 16 -2 19 1 4 3 -2 6 -13 5 -11 0 -14 -3 -6 -6z"/>
<path d="M9685 8695 c23 -8 83 -10 79 -3 -3 4 -24 8 -47 7 -23 0 -37 -2 -32
-4z"/>
<path d="M9958 8693 c7 -3 16 -2 19 1 4 3 -2 6 -13 5 -11 0 -14 -3 -6 -6z"/>
<path d="M10338 8693 c7 -3 16 -2 19 1 4 3 -2 6 -13 5 -11 0 -14 -3 -6 -6z"/>
<path d="M9553 8675 c0 -8 4 -12 9 -9 5 3 6 10 3 15 -9 13 -12 11 -12 -6z"/>
<path d="M9656 8675 c-3 -10 -11 -13 -18 -9 -7 4 -10 4 -6 -1 4 -4 3 -15 -4
-24 -6 -9 1 -4 17 11 16 15 26 30 23 33 -3 3 -8 -1 -12 -10z"/>
<path d="M10395 8676 c24 -17 28 -45 9 -73 -8 -13 -11 -23 -6 -23 14 0 31 47
27 71 -4 22 -21 39 -39 39 -6 0 -1 -6 9 -14z"/>
<path d="M8430 8665 c0 -8 4 -15 10 -15 5 0 7 7 4 15 -4 8 -8 15 -10 15 -2 0
-4 -7 -4 -15z"/>
<path d="M9105 8671 c-6 -11 13 -26 22 -17 4 3 1 6 -6 6 -7 0 -9 5 -6 10 3 6
4 10 1 10 -3 0 -7 -4 -11 -9z"/>
<path d="M10747 8673 c-2 -5 0 -19 4 -33 9 -25 9 -25 5 2 -2 15 2 29 8 32 7 3
7 5 -1 5 -6 1 -14 -2 -16 -6z"/>
<path d="M10993 8650 c0 -23 3 -28 9 -16 5 9 5 23 0 32 -6 12 -9 7 -9 -16z"/>
<path d="M10480 8659 c0 -5 5 -7 10 -4 6 3 10 8 10 11 0 2 -4 4 -10 4 -5 0
-10 -5 -10 -11z"/>
<path d="M10655 8640 c9 -16 17 -30 20 -30 2 0 -1 14 -6 30 -6 17 -15 30 -20
30 -5 0 -3 -13 6 -30z"/>
<path d="M11360 8666 c0 -2 8 -10 18 -17 15 -13 16 -12 3 4 -13 16 -21 21 -21
13z"/>
<path d="M7961 8644 c0 -11 3 -14 6 -6 3 7 2 16 -1 19 -3 4 -6 -2 -5 -13z"/>
<path d="M9422 8630 c0 -19 2 -27 5 -17 2 9 2 25 0 35 -3 9 -5 1 -5 -18z"/>
<path d="M9880 8654 c0 -12 37 -54 47 -54 4 0 -4 12 -18 28 -13 15 -25 29 -26
31 -2 2 -3 0 -3 -5z"/>
<path d="M9561 8634 c0 -11 3 -14 6 -6 3 7 2 16 -1 19 -3 4 -6 -2 -5 -13z"/>
<path d="M9810 8641 c0 -5 5 -13 10 -16 6 -3 10 -2 10 4 0 5 -4 13 -10 16 -5
3 -10 2 -10 -4z"/>
<path d="M10131 8603 c1 -53 6 -49 11 10 2 20 0 37 -4 37 -4 0 -8 -21 -7 -47z"/>
<path d="M10790 8641 c0 -6 4 -13 10 -16 6 -3 7 1 4 9 -7 18 -14 21 -14 7z"/>
<path d="M8559 8623 c-13 -16 -12 -17 4 -4 16 13 21 21 13 21 -2 0 -10 -8 -17
-17z"/>
<path d="M9136 8632 c-3 -6 -1 -14 5 -17 15 -10 25 3 12 16 -7 7 -13 7 -17 1z"/>
<path d="M11202 8605 c0 -16 2 -22 5 -12 2 9 2 23 0 30 -3 6 -5 -1 -5 -18z"/>
<path d="M11381 8614 c0 -11 3 -14 6 -6 3 7 2 16 -1 19 -3 4 -6 -2 -5 -13z"/>
<path d="M10462 8595 c-1 -19 7 -40 23 -59 14 -16 25 -25 25 -19 0 5 -9 18
-19 27 -11 10 -22 32 -24 50 l-4 31 -1 -30z"/>
<path d="M8460 8606 c0 -2 7 -6 15 -10 8 -3 15 -1 15 4 0 6 -7 10 -15 10 -8 0
-15 -2 -15 -4z"/>
<path d="M8510 8600 c0 -5 7 -10 16 -10 8 0 12 5 9 10 -3 6 -10 10 -16 10 -5
0 -9 -4 -9 -10z"/>
<path d="M11000 8598 c0 -5 11 -8 25 -8 14 0 25 3 25 8 0 4 -11 7 -25 7 -14 0
-25 -3 -25 -7z"/>
<path d="M7733 8593 c9 -2 23 -2 30 0 6 3 -1 5 -18 5 -16 0 -22 -2 -12 -5z"/>
<path d="M7788 8593 c7 -3 16 -2 19 1 4 3 -2 6 -13 5 -11 0 -14 -3 -6 -6z"/>
<path d="M7930 8590 c0 -5 5 -10 11 -10 5 0 7 5 4 10 -3 6 -8 10 -11 10 -2 0
-4 -4 -4 -10z"/>
<path d="M8208 8593 c7 -3 16 -2 19 1 4 3 -2 6 -13 5 -11 0 -14 -3 -6 -6z"/>
<path d="M9611 8584 c0 -11 3 -14 6 -6 3 7 2 16 -1 19 -3 4 -6 -2 -5 -13z"/>
<path d="M9816 8566 c-9 -22 -28 -42 -53 -55 -21 -11 -32 -20 -24 -21 24 0 78
48 89 80 15 41 6 38 -12 -4z"/>
<path d="M8240 8586 c0 -2 7 -9 15 -16 13 -11 14 -10 9 4 -5 14 -24 23 -24 12z"/>
<path d="M9240 8564 c0 -15 -8 -33 -17 -40 -17 -13 -17 -14 0 -8 13 5 16 2 10
-12 -4 -10 -2 -15 4 -11 10 6 18 97 8 97 -3 0 -5 -12 -5 -26z"/>
<path d="M9998 8575 c5 -11 12 -27 15 -35 5 -13 6 -13 6 1 1 8 -6 24 -15 35
-15 19 -15 19 -6 -1z"/>
<path d="M10836 8569 c9 -10 22 -19 28 -19 6 0 5 4 -2 9 -8 4 -12 12 -10 16 1
5 -5 9 -15 11 -18 2 -18 2 -1 -17z"/>
<path d="M10912 8560 c0 -19 2 -27 5 -17 2 9 2 25 0 35 -3 9 -5 1 -5 -18z"/>
<path d="M7831 8564 c0 -11 3 -14 6 -6 3 7 2 16 -1 19 -3 4 -6 -2 -5 -13z"/>
<path d="M9421 8564 c0 -11 3 -14 6 -6 3 7 2 16 -1 19 -3 4 -6 -2 -5 -13z"/>
<path d="M9505 8570 c-3 -5 -1 -10 4 -10 6 0 11 5 11 10 0 6 -2 10 -4 10 -3 0
-8 -4 -11 -10z"/>
<path d="M8040 8560 c-9 -6 -10 -10 -3 -10 6 0 15 5 18 10 8 12 4 12 -15 0z"/>
<path d="M8583 8549 c-2 -23 3 -25 10 -4 4 8 3 16 -1 19 -4 3 -9 -4 -9 -15z"/>
<path d="M8667 8563 c-10 -9 -9 -33 1 -33 4 0 8 9 8 20 0 23 0 22 -9 13z"/>
<path d="M9190 8560 c0 -5 5 -10 11 -10 5 0 7 5 4 10 -3 6 -8 10 -11 10 -2 0
-4 -4 -4 -10z"/>
<path d="M9458 8563 c7 -3 16 -2 19 1 4 3 -2 6 -13 5 -11 0 -14 -3 -6 -6z"/>
<path d="M7953 8553 c9 -2 23 -2 30 0 6 3 -1 5 -18 5 -16 0 -22 -2 -12 -5z"/>
<path d="M8430 8545 c0 -8 4 -15 10 -15 5 0 7 7 4 15 -4 8 -8 15 -10 15 -2 0
-4 -7 -4 -15z"/>
<path d="M9625 8551 c-3 -5 -2 -12 3 -15 5 -3 9 1 9 9 0 17 -3 19 -12 6z"/>
<path d="M11359 8534 c-22 -25 -22 -26 -3 -16 12 6 24 18 28 27 8 21 3 19 -25
-11z"/>
<path d="M8251 8519 c-9 -16 -19 -19 -37 -15 -17 5 -23 3 -19 -4 10 -16 40
-12 60 10 10 11 16 22 14 25 -3 2 -11 -5 -18 -16z"/>
<path d="M10130 8520 c0 -11 4 -20 8 -20 4 0 8 9 9 20 1 11 -2 20 -8 20 -5 0
-9 -9 -9 -20z"/>
<path d="M10880 8523 c6 -13 18 -23 27 -23 9 0 14 2 12 4 -2 2 -7 4 -11 3 -4
-1 -14 7 -23 18 -16 20 -16 19 -5 -2z"/>
<path d="M10990 8529 c0 -5 5 -7 10 -4 6 3 10 8 10 11 0 2 -4 4 -10 4 -5 0
-10 -5 -10 -11z"/>
<path d="M7896 8513 c-6 -14 -5 -15 5 -6 7 7 10 15 7 18 -3 3 -9 -2 -12 -12z"/>
<path d="M8560 8510 c-9 -6 -10 -10 -3 -10 6 0 15 5 18 10 8 12 4 12 -15 0z"/>
<path d="M8665 8500 c3 -5 8 -10 11 -10 2 0 4 5 4 10 0 6 -5 10 -11 10 -5 0
-7 -4 -4 -10z"/>
<path d="M9898 8503 c6 -2 18 -2 25 0 6 3 1 5 -13 5 -14 0 -19 -2 -12 -5z"/>
<path d="M10540 8500 c8 -5 24 -10 34 -10 26 0 18 6 -19 14 -22 5 -26 4 -15
-4z"/>
<path d="M8478 8493 c6 -2 18 -2 25 0 6 3 1 5 -13 5 -14 0 -19 -2 -12 -5z"/>
<path d="M8978 8493 c6 -2 18 -2 25 0 6 3 1 5 -13 5 -14 0 -19 -2 -12 -5z"/>
<path d="M9958 8493 c7 -3 16 -2 19 1 4 3 -2 6 -13 5 -11 0 -14 -3 -6 -6z"/>
<path d="M11018 8493 c7 -3 16 -2 19 1 4 3 -2 6 -13 5 -11 0 -14 -3 -6 -6z"/>
<path d="M7669 7853 c-13 -16 -12 -17 4 -4 9 7 17 15 17 17 0 8 -8 3 -21 -13z"/>
<path d="M8050 7860 c-9 -6 -10 -10 -3 -10 6 0 15 5 18 10 8 12 4 12 -15 0z"/>
<path d="M8314 7856 c-4 -9 -4 -20 0 -23 3 -4 6 2 6 13 0 16 2 16 10 4 5 -8
12 -12 15 -9 3 4 -1 12 -10 19 -12 10 -16 9 -21 -4z"/>
<path d="M8520 7859 c0 -6 7 -9 15 -5 8 3 26 1 40 -4 14 -5 25 -6 25 -1 0 5
-14 11 -31 15 -43 8 -49 8 -49 -5z"/>
<path d="M8685 7860 c-3 -5 -1 -10 4 -10 6 0 11 5 11 10 0 6 -2 10 -4 10 -3 0
-8 -4 -11 -10z"/>
<path d="M9480 7860 c0 -5 4 -10 10 -10 5 0 8 -6 6 -12 -1 -7 -1 -10 1 -5 3 4
9 4 15 1 5 -3 4 3 -4 15 -14 22 -28 28 -28 11z"/>
<path d="M10081 7851 c-12 -12 -21 -27 -21 -33 0 -7 11 0 23 16 23 28 26 29
65 19 24 -6 42 -7 42 -2 0 5 -6 9 -14 9 -7 0 -27 3 -44 6 -22 5 -35 1 -51 -15z"/>
<path d="M7894 7770 c0 -52 1 -74 3 -47 2 26 2 68 0 95 -2 26 -3 4 -3 -48z"/>
<path d="M8487 7842 c-19 -21 -22 -42 -6 -42 5 0 7 5 4 11 -4 5 1 19 11 30 9
10 15 19 12 19 -3 0 -12 -8 -21 -18z"/>
<path d="M9266 7846 c10 -8 21 -12 24 -10 5 6 -21 24 -34 24 -6 0 -1 -6 10
-14z"/>
<path d="M9653 7810 c0 -30 2 -43 4 -27 2 15 2 39 0 55 -2 15 -4 2 -4 -28z"/>
<path d="M9140 7840 c-8 -5 -10 -10 -5 -10 6 0 17 5 25 10 8 5 11 10 5 10 -5
0 -17 -5 -25 -10z"/>
<path d="M9981 7803 c-1 -23 3 -44 7 -47 4 -2 6 12 4 32 -5 56 -10 62 -11 15z"/>
<path d="M9307 7799 c4 -13 8 -18 11 -10 2 7 -1 18 -6 23 -8 8 -9 4 -5 -13z"/>
<path d="M7811 7791 c0 -13 -9 -30 -18 -37 -10 -7 -13 -14 -7 -14 19 0 36 28
31 52 l-4 23 -2 -24z"/>
<path d="M9488 7742 c5 -75 13 -82 11 -9 -1 32 -5 60 -9 62 -3 2 -4 -22 -2
-53z"/>
<path d="M10070 7790 c0 -5 5 -10 11 -10 5 0 7 5 4 10 -3 6 -8 10 -11 10 -2 0
-4 -4 -4 -10z"/>
<path d="M7670 7760 c0 -16 4 -30 8 -30 5 0 7 14 4 30 -2 17 -6 30 -8 30 -2 0
-4 -13 -4 -30z"/>
<path d="M9561 7770 c14 -31 19 -36 19 -24 0 6 -7 19 -16 30 -14 18 -14 18 -3
-6z"/>
<path d="M8050 7764 c0 -8 5 -12 10 -9 6 4 8 11 5 16 -9 14 -15 11 -15 -7z"/>
<path d="M8500 7776 c0 -2 7 -7 16 -10 8 -3 12 -2 9 4 -6 10 -25 14 -25 6z"/>
<path d="M10105 7770 c3 -5 14 -10 23 -10 15 0 15 2 2 10 -20 13 -33 13 -25 0z"/>
<path d="M8380 7750 c6 -11 13 -20 16 -20 2 0 0 9 -6 20 -6 11 -13 20 -16 20
-2 0 0 -9 6 -20z"/>
<path d="M8550 7760 c0 -5 5 -10 11 -10 5 0 7 5 4 10 -3 6 -8 10 -11 10 -2 0
-4 -4 -4 -10z"/>
<path d="M8586 7747 c3 -10 9 -15 12 -12 3 3 0 11 -7 18 -10 9 -11 8 -5 -6z"/>
<path d="M10166 7746 c10 -8 21 -12 24 -10 5 6 -21 24 -34 24 -6 0 -1 -6 10
-14z"/>
<path d="M8040 7730 c0 -5 5 -10 11 -10 5 0 7 5 4 10 -3 6 -8 10 -11 10 -2 0
-4 -4 -4 -10z"/>
<path d="M9110 7730 c0 -5 5 -10 11 -10 5 0 7 5 4 10 -3 6 -8 10 -11 10 -2 0
-4 -4 -4 -10z"/>
<path d="M9590 7734 c0 -6 7 -19 16 -30 14 -18 14 -18 3 6 -14 31 -19 36 -19
24z"/>
<path d="M8250 7726 c0 -2 7 -6 15 -10 8 -3 15 -1 15 4 0 6 -7 10 -15 10 -8 0
-15 -2 -15 -4z"/>
<path d="M8290 7718 c0 -4 7 -8 15 -8 8 0 15 4 15 8 0 5 -7 9 -15 9 -8 0 -15
-4 -15 -9z"/>
<path d="M8596 7705 c-3 -8 0 -17 6 -21 6 -4 8 -3 4 4 -3 5 -1 12 6 14 8 3 9
6 1 11 -6 4 -13 0 -17 -8z"/>
<path d="M9642 7696 c-16 -35 -15 -36 6 -35 11 0 12 2 4 6 -10 4 -10 8 -1 19
6 7 9 18 7 25 -2 6 -9 -1 -16 -15z"/>
<path d="M8241 7683 c-10 -26 -10 -27 4 -9 8 11 15 23 15 28 0 15 -7 8 -19
-19z"/>
<path d="M9830 7701 c0 -10 29 -36 34 -30 1 2 -6 12 -16 22 -10 9 -18 13 -18
8z"/>
<path d="M9152 7684 c10 -10 20 -16 22 -13 3 3 -5 11 -17 18 -21 13 -21 12 -5
-5z"/>
<path d="M8407 7679 c7 -7 15 -10 18 -7 3 3 -2 9 -12 12 -14 6 -15 5 -6 -5z"/>
<path d="M8949 7676 c11 -12 51 -29 51 -21 0 2 -14 10 -31 19 -23 12 -28 12
-20 2z"/>
<path d="M10060 7680 c8 -5 20 -10 25 -10 6 0 3 5 -5 10 -8 5 -19 10 -25 10
-5 0 -3 -5 5 -10z"/>
<path d="M8499 7667 c5 -5 19 -7 32 -5 20 3 19 5 -9 9 -20 3 -29 2 -23 -4z"/>
<path d="M9245 7670 c-3 -5 -2 -10 4 -10 5 0 13 5 16 10 3 6 2 10 -4 10 -5 0
-13 -4 -16 -10z"/>
<path d="M9935 7670 c-3 -6 1 -7 9 -4 18 7 21 14 7 14 -6 0 -13 -4 -16 -10z"/>
<path d="M7885 7660 c3 -5 8 -10 11 -10 2 0 4 5 4 10 0 6 -5 10 -11 10 -5 0
-7 -4 -4 -10z"/>
<path d="M7916 7662 c-2 -4 11 -6 30 -4 19 2 34 6 34 8 0 8 -59 4 -64 -4z"/>
<path d="M8055 7660 c3 -5 11 -10 16 -10 6 0 7 5 4 10 -3 6 -11 10 -16 10 -6
0 -7 -4 -4 -10z"/>
<path d="M8167 7659 c7 -7 15 -10 18 -7 3 3 -2 9 -12 12 -14 6 -15 5 -6 -5z"/>
<path d="M8685 7660 c3 -5 8 -10 11 -10 2 0 4 5 4 10 0 6 -5 10 -11 10 -5 0
-7 -4 -4 -10z"/>
<path d="M9898 7663 c7 -3 16 -2 19 1 4 3 -2 6 -13 5 -11 0 -14 -3 -6 -6z"/>
<path d="M10108 7663 c7 -3 16 -2 19 1 4 3 -2 6 -13 5 -11 0 -14 -3 -6 -6z"/>
<path d="M7670 7479 c0 -5 5 -7 10 -4 6 3 10 8 10 11 0 2 -4 4 -10 4 -5 0 -10
-5 -10 -11z"/>
<path d="M7740 7482 c0 -4 12 -8 28 -9 23 -1 24 -1 7 7 -26 11 -35 12 -35 2z"/>
<path d="M9251 7486 c2 -2 18 -6 34 -10 22 -5 26 -4 15 4 -14 9 -59 15 -49 6z"/>
<path d="M9630 7480 c0 -5 5 -10 10 -10 6 0 10 5 10 10 0 6 -4 10 -10 10 -5 0
-10 -4 -10 -10z"/>
<path d="M9660 7482 c0 -4 9 -8 19 -8 11 0 17 4 15 8 -3 4 -12 8 -20 8 -8 0
-14 -4 -14 -8z"/>
<path d="M9750 7480 c0 -6 7 -10 15 -10 8 0 15 2 15 4 0 2 -7 6 -15 10 -8 3
-15 1 -15 -4z"/>
<path d="M7708 7473 c7 -3 16 -2 19 1 4 3 -2 6 -13 5 -11 0 -14 -3 -6 -6z"/>
<path d="M8280 7473 c14 -3 32 -10 40 -16 13 -11 13 -10 1 6 -7 9 -25 16 -40
16 l-26 -2 25 -4z"/>
<path d="M8987 7473 c-11 -10 -8 -43 3 -43 5 0 7 7 3 16 -3 9 0 20 8 25 8 5 9
9 3 9 -6 0 -14 -3 -17 -7z"/>
<path d="M9048 7473 c12 -2 30 -2 40 0 9 3 -1 5 -23 4 -22 0 -30 -2 -17 -4z"/>
<path d="M9515 7472 c-13 -9 -37 -53 -32 -58 2 -2 10 7 17 21 13 24 30 34 30
17 0 -5 7 -17 15 -28 13 -15 13 -13 -1 16 -9 19 -17 36 -18 37 -1 1 -6 -1 -11
-5z"/>
<path d="M8770 7450 c0 -11 4 -20 9 -20 6 0 9 9 8 20 -1 11 -5 20 -9 20 -4 0
-8 -9 -8 -20z"/>
<path d="M9121 7453 c7 -12 15 -20 18 -17 3 2 -3 12 -13 22 -17 16 -18 16 -5
-5z"/>
<path d="M7830 7439 c-7 -11 -10 -23 -7 -25 2 -2 9 7 15 21 14 30 7 33 -8 4z"/>
<path d="M9704 7365 c0 -55 1 -76 3 -47 2 29 2 74 0 100 -2 26 -3 2 -3 -53z"/>
<path d="M8611 7395 l1 -60 10 48 c8 35 7 52 -1 60 -8 8 -11 -5 -10 -48z"/>
<path d="M8006 7427 c3 -10 9 -15 12 -12 3 3 0 11 -7 18 -10 9 -11 8 -5 -6z"/>
<path d="M8170 7437 c0 -1 -4 -18 -10 -36 -5 -19 -6 -30 -1 -25 10 11 24 64
16 64 -3 0 -5 -1 -5 -3z"/>
<path d="M9116 7403 c-6 -14 -5 -15 5 -6 7 7 10 15 7 18 -3 3 -9 -2 -12 -12z"/>
<path d="M9466 7385 c-9 -26 -7 -32 5 -12 6 10 9 21 6 23 -2 3 -7 -2 -11 -11z"/>
<path d="M8405 7369 c-4 -12 -2 -26 3 -31 8 -8 10 -1 10 21 -1 36 -4 39 -13
10z"/>
<path d="M8490 7380 c20 -13 33 -13 25 0 -3 6 -14 10 -23 10 -15 0 -15 -2 -2
-10z"/>
<path d="M8775 7380 c-3 -5 -1 -10 4 -10 6 0 11 5 11 10 0 6 -2 10 -4 10 -3 0
-8 -4 -11 -10z"/>
<path d="M8986 7374 c-9 -24 -7 -27 9 -10 17 17 19 26 6 26 -5 0 -12 -7 -15
-16z"/>
<path d="M9020 7382 c0 -10 36 -9 46 1 4 4 -5 7 -19 7 -15 0 -27 -4 -27 -8z"/>
<path d="M9870 7380 c0 -5 5 -10 11 -10 5 0 7 5 4 10 -3 6 -8 10 -11 10 -2 0
-4 -4 -4 -10z"/>
<path d="M8438 7373 c6 -2 18 -2 25 0 6 3 1 5 -13 5 -14 0 -19 -2 -12 -5z"/>
<path d="M9340 7365 c-11 -13 -10 -14 4 -9 9 3 16 10 16 15 0 13 -6 11 -20 -6z"/>
<path d="M7813 7355 c0 -8 4 -12 9 -9 5 3 6 10 3 15 -9 13 -12 11 -12 -6z"/>
<path d="M8015 7361 c-3 -5 -2 -12 3 -15 5 -3 9 1 9 9 0 17 -3 19 -12 6z"/>
<path d="M9221 7344 c0 -11 3 -14 6 -6 3 7 2 16 -1 19 -3 4 -6 -2 -5 -13z"/>
<path d="M9270 7348 c0 -4 9 -7 20 -5 29 5 33 13 5 13 -14 0 -25 -4 -25 -8z"/>
<path d="M8776 7325 c-3 -8 -1 -15 4 -15 6 0 10 7 10 15 0 8 -2 15 -4 15 -2 0
-6 -7 -10 -15z"/>
<path d="M9140 7330 c0 -7 -8 -22 -17 -32 -15 -17 -15 -18 0 -13 17 7 33 42
23 52 -3 4 -6 0 -6 -7z"/>
<path d="M9436 7325 c-9 -26 -7 -32 5 -12 6 10 9 21 6 23 -2 3 -7 -2 -11 -11z"/>
<path d="M9538 7333 c7 -3 16 -2 19 1 4 3 -2 6 -13 5 -11 0 -14 -3 -6 -6z"/>
<path d="M9576 7333 c6 -4 14 -15 17 -23 5 -11 6 -9 4 4 -1 11 -9 21 -17 23
-10 3 -11 2 -4 -4z"/>
<path d="M8405 7310 c-3 -5 -1 -10 4 -10 6 0 11 5 11 10 0 6 -2 10 -4 10 -3 0
-8 -4 -11 -10z"/>
<path d="M8985 7310 c-3 -5 -1 -10 4 -10 6 0 11 5 11 10 0 6 -2 10 -4 10 -3 0
-8 -4 -11 -10z"/>
<path d="M9210 7310 c0 -5 5 -10 10 -10 6 0 10 5 10 10 0 6 -4 10 -10 10 -5 0
-10 -4 -10 -10z"/>
<path d="M8260 7280 c-8 -5 -10 -10 -5 -10 6 0 17 5 25 10 8 5 11 10 5 10 -5
0 -17 -5 -25 -10z"/>
<path d="M9078 7273 c7 -3 16 -2 19 1 4 3 -2 6 -13 5 -11 0 -14 -3 -6 -6z"/>
<path d="M7934 7070 c0 -32 8 -32 13 0 1 10 -1 21 -5 24 -5 3 -8 -8 -8 -24z"/>
<path d="M8330 7096 c0 -2 16 -6 35 -8 19 -2 35 0 35 4 0 4 -16 8 -35 8 -19 0
-35 -2 -35 -4z"/>
<path d="M8780 7092 c0 -4 17 -6 38 -4 58 5 62 10 10 11 -27 1 -48 -3 -48 -7z"/>
<path d="M9100 7080 c0 -12 4 -19 9 -15 12 7 51 -33 51 -51 0 -7 4 -15 9 -18
21 -13 -4 36 -35 69 -30 32 -34 34 -34 15z"/>
<path d="M9350 7080 c0 -11 2 -20 4 -20 2 0 6 9 9 20 3 11 1 20 -4 20 -5 0 -9
-9 -9 -20z"/>
<path d="M9388 7093 c7 -3 16 -2 19 1 4 3 -2 6 -13 5 -11 0 -14 -3 -6 -6z"/>
<path d="M9675 7090 c-3 -5 -1 -10 4 -10 6 0 11 5 11 10 0 6 -2 10 -4 10 -3 0
-8 -4 -11 -10z"/>
<path d="M9970 7080 c0 -11 2 -20 4 -20 2 0 6 9 9 20 3 11 1 20 -4 20 -5 0 -9
-9 -9 -20z"/>
<path d="M10028 7093 c6 -2 18 -2 25 0 6 3 1 5 -13 5 -14 0 -19 -2 -12 -5z"/>
<path d="M10084 7088 c-4 -7 -4 -10 1 -6 4 4 16 3 26 -3 11 -5 19 -7 19 -5 0
3 -9 10 -19 16 -15 7 -22 7 -27 -2z"/>
<path d="M10295 7080 c10 -11 20 -20 22 -20 2 0 -1 9 -7 20 -6 11 -16 20 -22
20 -6 0 -3 -9 7 -20z"/>
<path d="M10468 7093 c7 -3 16 -2 19 1 4 3 -2 6 -13 5 -11 0 -14 -3 -6 -6z"/>
<path d="M10508 7093 c7 -3 16 -2 19 1 4 3 -2 6 -13 5 -11 0 -14 -3 -6 -6z"/>
<path d="M10603 7085 c-3 -9 -3 -19 1 -22 3 -4 6 1 6 10 0 8 6 18 13 20 9 4 9
6 -1 6 -7 1 -15 -6 -19 -14z"/>
<path d="M10257 7043 c-21 -48 -15 -55 8 -8 9 20 15 38 13 41 -2 2 -12 -13
-21 -33z"/>
<path d="M7665 7059 c-11 -16 -1 -19 13 -3 7 8 8 14 3 14 -5 0 -13 -5 -16 -11z"/>
<path d="M7843 7031 c12 -22 23 -38 25 -36 6 6 -30 75 -38 75 -5 0 1 -18 13
-39z"/>
<path d="M7960 7063 c1 -11 50 -66 55 -62 2 2 -10 19 -26 37 -16 18 -29 29
-29 25z"/>
<path d="M8273 7058 c-15 -20 -25 -38 -20 -38 3 0 12 11 21 25 17 26 16 35 -1
13z"/>
<path d="M8432 7053 c24 -27 32 -81 16 -101 -12 -15 -11 -16 5 -3 9 7 17 21
17 31 0 31 -21 78 -38 85 -14 5 -15 4 0 -12z"/>
<path d="M8520 7060 c0 -5 5 -10 10 -10 6 0 10 5 10 10 0 6 -4 10 -10 10 -5 0
-10 -4 -10 -10z"/>
<path d="M8680 7059 c0 -5 5 -7 10 -4 6 3 10 8 10 11 0 2 -4 4 -10 4 -5 0 -10
-5 -10 -11z"/>
<path d="M8773 7050 c-1 -11 2 -18 8 -15 11 7 12 35 1 35 -4 0 -8 -9 -9 -20z"/>
<path d="M9250 7036 c0 -9 5 -16 10 -16 6 0 10 4 10 9 0 6 -4 13 -10 16 -5 3
-10 -1 -10 -9z"/>
<path d="M9976 7042 c-8 -13 -4 -142 4 -147 3 -2 6 32 6 75 -1 83 -1 86 -10
72z"/>
<path d="M10606 7035 c-9 -26 -7 -32 5 -12 6 10 9 21 6 23 -2 3 -7 -2 -11 -11z"/>
<path d="M9646 7013 c-6 -14 -5 -15 5 -6 7 7 10 15 7 18 -3 3 -9 -2 -12 -12z"/>
<path d="M9562 7000 c0 -14 2 -19 5 -12 2 6 2 18 0 25 -3 6 -5 1 -5 -13z"/>
<path d="M9787 7001 c-4 -17 -3 -21 5 -13 5 5 8 16 6 23 -3 8 -7 3 -11 -10z"/>
<path d="M10150 7011 c0 -6 4 -13 10 -16 6 -3 7 1 4 9 -7 18 -14 21 -14 7z"/>
<path d="M9408 6993 c6 -2 18 -2 25 0 6 3 1 5 -13 5 -14 0 -19 -2 -12 -5z"/>
<path d="M9710 6991 c0 -6 4 -13 10 -16 6 -3 7 1 4 9 -7 18 -14 21 -14 7z"/>
<path d="M8034 6963 c18 -36 23 -40 23 -20 0 6 -9 21 -20 32 -19 20 -19 20 -3
-12z"/>
<path d="M10226 6974 c-8 -21 -8 -39 1 -30 8 7 15 46 9 46 -2 0 -7 -7 -10 -16z"/>
<path d="M8250 6975 c0 -5 5 -17 10 -25 5 -8 10 -10 10 -5 0 6 -5 17 -10 25
-5 8 -10 11 -10 5z"/>
<path d="M8781 6964 c0 -11 3 -14 6 -6 3 7 2 16 -1 19 -3 4 -6 -2 -5 -13z"/>
<path d="M10334 6958 c-10 -13 -12 -18 -4 -11 11 8 18 8 28 -3 7 -7 12 -16 12
-19 -1 -22 1 -25 11 -19 8 4 7 9 -2 15 -8 5 -10 9 -5 9 5 0 2 8 -7 18 -10 10
-14 22 -10 25 3 4 4 7 1 7 -3 0 -13 -10 -24 -22z"/>
<path d="M7650 6965 c0 -5 9 -21 20 -35 11 -14 20 -20 20 -15 0 6 -9 21 -20
35 -11 14 -20 21 -20 15z"/>
<path d="M7843 6953 c-3 -10 -8 -22 -11 -27 -3 -5 0 -6 5 -3 11 7 25 47 17 47
-3 0 -7 -8 -11 -17z"/>
<path d="M9201 6957 c8 -7 18 -20 22 -29 3 -9 16 -22 28 -28 17 -10 15 -4 -11
29 -18 23 -38 41 -44 41 -6 0 -4 -6 5 -13z"/>
<path d="M10605 6960 c-3 -5 -1 -10 4 -10 6 0 11 5 11 10 0 6 -2 10 -4 10 -3
0 -8 -4 -11 -10z"/>
<path d="M9254 6946 c1 -8 5 -18 8 -22 4 -3 5 1 4 10 -1 8 -5 18 -8 22 -4 3
-5 -1 -4 -10z"/>
<path d="M9351 6944 c0 -11 3 -14 6 -6 3 7 2 16 -1 19 -3 4 -6 -2 -5 -13z"/>
<path d="M9576 6947 c3 -10 9 -15 12 -12 3 3 0 11 -7 18 -10 9 -11 8 -5 -6z"/>
<path d="M8530 6943 c0 -6 8 -17 18 -24 16 -13 16 -13 2 6 -8 11 -16 22 -17
24 -2 2 -3 0 -3 -6z"/>
<path d="M8680 6939 c0 -5 5 -7 10 -4 6 3 10 8 10 11 0 2 -4 4 -10 4 -5 0 -10
-5 -10 -11z"/>
<path d="M9731 6943 c-3 -41 33 -59 42 -20 6 21 5 21 -8 3 -14 -19 -15 -18
-24 5 -5 13 -10 19 -10 12z"/>
<path d="M8091 6928 c-1 -12 -7 -16 -18 -12 -15 5 -15 3 2 -11 18 -14 20 -14
23 0 2 8 1 21 -1 28 -3 7 -6 5 -6 -5z"/>
<path d="M9092 6920 c0 -14 2 -19 5 -12 2 6 2 18 0 25 -3 6 -5 1 -5 -13z"/>
<path d="M10125 6930 c-3 -6 1 -7 9 -4 18 7 21 14 7 14 -6 0 -13 -4 -16 -10z"/>
<path d="M8312 6904 c10 -10 20 -16 22 -13 3 3 -5 11 -17 18 -21 13 -21 12 -5
-5z"/>
<path d="M10100 6909 c0 -5 -4 -8 -8 -5 -4 2 -14 0 -22 -5 -11 -7 -9 -8 9 -6
21 3 45 27 27 27 -3 0 -6 -5 -6 -11z"/>
<path d="M8618 6893 c7 -3 16 -2 19 1 4 3 -2 6 -13 5 -11 0 -14 -3 -6 -6z"/>
<path d="M9438 6893 c7 -3 16 -2 19 1 4 3 -2 6 -13 5 -11 0 -14 -3 -6 -6z"/>
<path d="M8370 6375 l0 -205 50 0 50 0 0 205 0 205 -50 0 -50 0 0 -205z"/>
<path d="M7692 6518 l3 -43 63 0 63 0 -3 -110 -3 -110 -29 -3 c-18 -2 -40 4
-57 17 l-28 21 -21 -30 c-28 -39 -21 -56 32 -80 53 -24 86 -25 138 -4 63 25
70 48 70 229 l0 155 -116 0 -115 0 3 -42z"/>
<path d="M9210 6551 c-31 -10 -90 -40 -90 -46 0 -2 7 -19 16 -38 l16 -33 46
23 c53 27 84 29 102 8 20 -25 -3 -64 -90 -150 -68 -67 -80 -85 -80 -112 l0
-33 146 0 145 0 -3 38 -3 37 -70 1 c-38 1 -74 2 -80 3 -5 1 18 29 51 64 79 81
94 104 94 147 0 57 -44 93 -117 97 -32 1 -69 -1 -83 -6z"/>
<path d="M9490 6450 l0 -110 59 0 c83 0 111 -12 111 -49 0 -15 -7 -34 -15 -41
-21 -17 -100 -7 -125 15 -23 21 -22 21 -43 -21 -18 -35 -16 -40 30 -59 121
-51 244 -9 260 88 12 77 -33 126 -126 136 -54 6 -56 7 -56 36 l0 30 83 3 82 3
0 39 0 40 -130 0 -130 0 0 -110z"/>
<path d="M10170 6551 c-41 -13 -90 -41 -90 -52 0 -5 7 -23 15 -40 l16 -30 28
20 c57 41 121 39 121 -5 0 -16 -28 -55 -90 -121 -67 -74 -90 -105 -90 -125 l0
-28 151 0 150 0 -3 38 -3 37 -75 1 c-41 0 -74 3 -73 8 1 4 29 37 62 73 71 76
91 125 70 169 -25 52 -113 78 -189 55z"/>
<path d="M10510 6543 c-22 -11 -43 -34 -58 -63 -20 -39 -23 -56 -20 -131 6
-133 52 -186 157 -182 90 3 136 70 136 198 -1 86 -14 122 -58 163 -34 32 -110
39 -157 15z m104 -75 c18 -26 22 -160 7 -201 -14 -36 -48 -44 -74 -18 -36 35
-36 190 -1 226 22 21 50 19 68 -7z"/>
<path d="M10858 6550 c-32 -9 -88 -42 -88 -51 0 -3 7 -20 15 -37 l16 -30 42
24 c53 30 92 31 107 3 15 -26 -13 -68 -105 -159 -54 -53 -65 -70 -65 -97 l0
-33 146 0 145 0 -3 38 -3 37 -70 2 c-38 1 -74 2 -79 2 -5 1 23 34 62 75 79 83
97 128 71 175 -28 50 -116 74 -191 51z"/>
<path d="M11152 6518 c3 -41 4 -43 36 -43 37 0 34 17 32 -182 l-1 -123 50 0
51 0 0 195 0 195 -86 0 -85 0 3 -42z"/>
<path d="M7994 6456 c-3 -8 -4 -65 -2 -125 3 -105 4 -112 31 -138 37 -37 103
-39 140 -5 24 22 47 16 32 -8 -4 -6 13 -10 44 -10 l51 0 0 148 0 148 -31 2
c-65 5 -69 -1 -69 -94 0 -100 -9 -124 -49 -124 -44 0 -52 19 -54 122 l-2 93
-43 3 c-30 2 -44 -1 -48 -12z"/>
<path d="M8510 6461 c0 -5 27 -72 60 -149 33 -78 60 -143 60 -146 0 -3 -11
-13 -24 -21 -18 -12 -30 -14 -44 -6 -15 8 -21 5 -36 -20 -21 -35 -16 -45 29
-58 43 -12 98 2 125 31 24 26 154 354 145 368 -3 5 -23 10 -43 10 l-38 0 -33
-102 -34 -102 -35 95 c-19 52 -40 97 -46 101 -16 11 -86 10 -86 -1z"/>
<path d="M8881 6244 c-22 -16 -28 -48 -10 -59 6 -4 8 -12 6 -19 -19 -49 -18
-56 2 -56 28 0 74 69 69 106 -4 34 -37 48 -67 28z"/>
<path d="M9839 6241 c-21 -17 -23 -23 -13 -49 9 -22 8 -35 -3 -56 -13 -25 -12
-26 10 -26 17 0 32 12 51 41 31 46 31 75 0 96 -19 12 -24 11 -45 -6z"/>
<path d="M8120 5610 c0 -5 7 -7 15 -4 8 4 15 8 15 10 0 2 -7 4 -15 4 -8 0 -15
-4 -15 -10z"/>
<path d="M8550 5595 c13 -14 26 -25 28 -25 3 0 -5 11 -18 25 -13 14 -26 25
-28 25 -3 0 5 -11 18 -25z"/>
<path d="M8920 5604 c0 -8 5 -12 10 -9 6 3 10 10 10 16 0 5 -4 9 -10 9 -5 0
-10 -7 -10 -16z"/>
<path d="M9574 5605 c-10 -8 -14 -15 -8 -15 6 0 17 7 24 15 16 19 9 19 -16 0z"/>
<path d="M9647 5609 c7 -7 15 -10 18 -7 3 3 -2 9 -12 12 -14 6 -15 5 -6 -5z"/>
<path d="M10760 5610 c8 -5 20 -10 25 -10 6 0 3 5 -5 10 -8 5 -19 10 -25 10
-5 0 -3 -5 5 -10z"/>
<path d="M9100 5588 c-9 -20 -9 -21 2 -7 7 9 20 18 28 22 12 4 12 6 -2 6 -10
1 -22 -9 -28 -21z"/>
<path d="M9971 5607 c2 -1 13 -9 24 -17 19 -14 19 -14 6 3 -7 9 -18 17 -24 17
-6 0 -8 -1 -6 -3z"/>
<path d="M7730 5520 c0 -47 4 -80 10 -80 6 0 10 33 10 80 0 47 -4 80 -10 80
-6 0 -10 -33 -10 -80z"/>
<path d="M8650 5589 c0 -5 5 -7 10 -4 6 3 10 8 10 11 0 2 -4 4 -10 4 -5 0 -10
-5 -10 -11z"/>
<path d="M9850 5514 c0 -54 4 -83 10 -79 6 3 10 42 10 86 0 46 -4 79 -10 79
-6 0 -10 -35 -10 -86z"/>
<path d="M7870 5565 c0 -14 5 -25 10 -25 6 0 10 11 10 25 0 14 -4 25 -10 25
-5 0 -10 -11 -10 -25z"/>
<path d="M8030 5565 c0 -14 5 -25 10 -25 6 0 10 11 10 25 0 14 -4 25 -10 25
-5 0 -10 -11 -10 -25z"/>
<path d="M8896 5565 c-9 -26 -7 -32 5 -12 6 10 9 21 6 23 -2 3 -7 -2 -11 -11z"/>
<path d="M10645 5550 c-9 -16 -13 -30 -11 -30 3 0 12 14 21 30 9 17 13 30 11
30 -3 0 -12 -13 -21 -30z"/>
<path d="M8120 5549 c0 -5 5 -7 10 -4 6 3 10 8 10 11 0 2 -4 4 -10 4 -5 0 -10
-5 -10 -11z"/>
<path d="M8556 5543 c-6 -14 -5 -15 5 -6 7 7 10 15 7 18 -3 3 -9 -2 -12 -12z"/>
<path d="M9574 5539 c3 -15 46 -32 46 -19 0 6 -9 10 -19 10 -11 0 -22 5 -24
10 -3 6 -4 5 -3 -1z"/>
<path d="M8971 5530 c0 -8 4 -22 9 -30 12 -18 12 -2 0 25 -6 13 -9 15 -9 5z"/>
<path d="M10564 5531 c4 -5 1 -12 -4 -14 -6 -3 -5 -4 2 -3 15 3 23 26 8 26 -6
0 -9 -4 -6 -9z"/>
<path d="M7876 5508 c-8 -32 -7 -78 2 -78 4 0 7 23 8 50 1 55 -1 61 -10 28z"/>
<path d="M8034 5481 c1 -28 4 -51 9 -51 10 0 9 72 -2 88 -5 8 -8 -6 -7 -37z"/>
<path d="M8125 5520 c3 -5 11 -10 16 -10 6 0 7 5 4 10 -3 6 -11 10 -16 10 -6
0 -7 -4 -4 -10z"/>
<path d="M8460 5519 c0 -5 5 -7 10 -4 6 3 10 8 10 11 0 2 -4 4 -10 4 -5 0 -10
-5 -10 -11z"/>
<path d="M8495 5520 c3 -5 8 -10 11 -10 2 0 4 5 4 10 0 6 -5 10 -11 10 -5 0
-7 -4 -4 -10z"/>
<path d="M8661 5514 c0 -11 3 -14 6 -6 3 7 2 16 -1 19 -3 4 -6 -2 -5 -13z"/>
<path d="M8876 5513 c-6 -14 -5 -15 5 -6 7 7 10 15 7 18 -3 3 -9 -2 -12 -12z"/>
<path d="M9465 5519 c-4 -6 -5 -12 -2 -15 2 -3 7 2 10 11 7 17 1 20 -8 4z"/>
<path d="M10406 5515 c-3 -8 -1 -15 4 -15 6 0 10 7 10 15 0 8 -2 15 -4 15 -2
0 -6 -7 -10 -15z"/>
<path d="M10168 5513 c7 -3 16 -2 19 1 4 3 -2 6 -13 5 -11 0 -14 -3 -6 -6z"/>
<path d="M10518 5513 c7 -3 16 -2 19 1 4 3 -2 6 -13 5 -11 0 -14 -3 -6 -6z"/>
<path d="M8560 5498 c25 -30 7 -70 -35 -81 -16 -5 -15 -5 4 -4 13 1 33 14 45
30 l20 27 -22 20 c-12 11 -17 15 -12 8z"/>
<path d="M10630 5500 c0 -5 5 -10 10 -10 6 0 10 5 10 10 0 6 -4 10 -10 10 -5
0 -10 -4 -10 -10z"/>
<path d="M9670 5490 c0 -5 5 -10 11 -10 5 0 7 5 4 10 -3 6 -8 10 -11 10 -2 0
-4 -4 -4 -10z"/>
<path d="M10027 5485 c-4 -11 -10 -27 -13 -35 -3 -8 1 -5 11 8 9 12 15 28 13
34 -3 7 -7 4 -11 -7z"/>
<path d="M10572 5480 c0 -14 2 -19 5 -12 2 6 2 18 0 25 -3 6 -5 1 -5 -13z"/>
<path d="M8905 5470 c-3 -5 -2 -10 4 -10 5 0 13 5 16 10 3 6 2 10 -4 10 -5 0
-13 -4 -16 -10z"/>
<path d="M8996 5465 c4 -8 10 -15 15 -15 4 0 6 7 3 15 -4 8 -10 15 -15 15 -4
0 -6 -7 -3 -15z"/>
<path d="M10406 5455 c4 -8 8 -15 10 -15 2 0 4 7 4 15 0 8 -4 15 -10 15 -5 0
-7 -7 -4 -15z"/>
<path d="M10640 5466 c0 -2 8 -10 18 -17 15 -13 16 -12 3 4 -13 16 -21 21 -21
13z"/>
<path d="M11300 5440 c0 -16 4 -30 8 -30 5 0 7 14 4 30 -2 17 -6 30 -8 30 -2
0 -4 -13 -4 -30z"/>
<path d="M9095 5440 c3 -5 8 -10 11 -10 2 0 4 5 4 10 0 6 -5 10 -11 10 -5 0
-7 -4 -4 -10z"/>
<path d="M9670 5443 c0 -6 -12 -16 -27 -21 -16 -6 -21 -11 -12 -11 20 -1 56
25 46 35 -4 4 -7 2 -7 -3z"/>
<path d="M10100 5435 c0 -8 2 -15 4 -15 2 0 6 7 10 15 3 8 1 15 -4 15 -6 0
-10 -7 -10 -15z"/>
<path d="M8126 5425 c4 -8 11 -15 16 -15 6 0 5 6 -2 15 -7 8 -14 15 -16 15 -2
0 -1 -7 2 -15z"/>
<path d="M8841 5424 c0 -11 3 -14 6 -6 3 7 2 16 -1 19 -3 4 -6 -2 -5 -13z"/>
<path d="M9016 5425 c4 -8 8 -15 10 -15 2 0 4 7 4 15 0 8 -4 15 -10 15 -5 0
-7 -7 -4 -15z"/>
<path d="M9204 5424 c-18 -14 -18 -14 6 -3 31 14 36 19 24 19 -6 0 -19 -7 -30
-16z"/>
<path d="M9945 5420 c-28 -7 -28 -8 -5 -9 14 0 32 4 40 9 17 11 8 11 -35 0z"/>
<path d="M9148 5413 c7 -3 16 -2 19 1 4 3 -2 6 -13 5 -11 0 -14 -3 -6 -6z"/>
<path d="M8405 5230 c-3 -5 -2 -10 4 -10 5 0 13 5 16 10 3 6 2 10 -4 10 -5 0
-13 -4 -16 -10z"/>
<path d="M8448 5233 c6 -2 18 -2 25 0 6 3 1 5 -13 5 -14 0 -19 -2 -12 -5z"/>
<path d="M8640 5230 c-8 -5 -10 -10 -5 -10 6 0 17 5 25 10 8 5 11 10 5 10 -5
0 -17 -5 -25 -10z"/>
<path d="M8690 5230 c8 -5 20 -10 25 -10 6 0 3 5 -5 10 -8 5 -19 10 -25 10 -5
0 -3 -5 5 -10z"/>
<path d="M8847 5233 c-4 -3 -6 -20 -6 -37 2 -27 2 -28 6 -6 3 14 10 31 15 38
11 12 -3 18 -15 5z"/>
<path d="M8898 5233 c7 -3 16 -2 19 1 4 3 -2 6 -13 5 -11 0 -14 -3 -6 -6z"/>
<path d="M8950 5230 c0 -5 5 -10 11 -10 5 0 7 5 4 10 -3 6 -8 10 -11 10 -2 0
-4 -4 -4 -10z"/>
<path d="M7718 5219 c-10 -5 -23 -20 -28 -32 -9 -19 -9 -20 2 -7 7 9 24 24 38
33 26 18 17 23 -12 6z"/>
<path d="M7970 5222 c0 -4 9 -8 19 -8 11 0 17 4 15 8 -3 4 -12 8 -20 8 -8 0
-14 -4 -14 -8z"/>
<path d="M9071 5203 l1 -28 8 25 c4 14 8 20 9 14 1 -7 8 -14 16 -18 12 -4 13
-2 2 14 -17 29 -37 25 -36 -7z"/>
<path d="M9238 5218 c-2 -7 -1 -33 3 -58 l6 -45 1 58 c2 55 -2 71 -10 45z"/>
<path d="M9330 5219 c0 -5 5 -7 10 -4 6 3 10 8 10 11 0 2 -4 4 -10 4 -5 0 -10
-5 -10 -11z"/>
<path d="M9471 5197 c-12 -19 -21 -42 -21 -52 0 -22 10 -14 15 12 2 10 4 20 5
23 0 3 7 14 16 25 13 17 16 18 25 5 9 -12 10 -12 7 -1 -8 27 -26 22 -47 -12z"/>
<path d="M9804 5156 c0 -41 3 -73 7 -71 9 6 11 145 2 145 -4 0 -8 -34 -9 -74z"/>
<path d="M10057 5223 c-4 -3 -7 -11 -7 -17 0 -7 3 -7 8 0 4 7 16 14 27 17 19
5 19 5 -1 6 -11 0 -24 -2 -27 -6z"/>
<path d="M10312 5224 c9 -3 19 -13 22 -22 3 -12 4 -12 3 3 -1 12 -10 21 -22
22 -15 1 -15 0 -3 -3z"/>
<path d="M8730 5216 c0 -2 8 -10 18 -17 15 -13 16 -12 3 4 -13 16 -21 21 -21
13z"/>
<path d="M8406 5197 c3 -10 9 -15 12 -12 3 3 0 11 -7 18 -10 9 -11 8 -5 -6z"/>
<path d="M9334 5115 c0 -49 1 -71 3 -48 2 23 2 64 0 90 -2 26 -3 8 -3 -42z"/>
<path d="M7952 5170 c-7 -11 -8 -20 -3 -20 9 0 24 30 18 36 -1 2 -8 -6 -15
-16z"/>
<path d="M9520 5180 c0 -5 5 -10 11 -10 5 0 7 5 4 10 -3 6 -8 10 -11 10 -2 0
-4 -4 -4 -10z"/>
<path d="M10271 5154 c-12 -20 -20 -38 -18 -40 2 -2 14 14 26 36 28 50 21 53
-8 4z"/>
<path d="M9136 5162 c-3 -5 1 -9 9 -9 8 0 12 4 9 9 -3 4 -7 8 -9 8 -2 0 -6 -4
-9 -8z"/>
<path d="M10065 5150 c10 -11 20 -20 23 -20 3 0 -3 9 -13 20 -10 11 -20 20
-23 20 -3 0 3 -9 13 -20z"/>
<path d="M10351 5154 c0 -11 3 -14 6 -6 3 7 2 16 -1 19 -3 4 -6 -2 -5 -13z"/>
<path d="M7670 5139 c0 -11 4 -18 10 -14 5 3 7 12 3 20 -7 21 -13 19 -13 -6z"/>
<path d="M8773 5138 c4 -23 -10 -57 -28 -70 -6 -5 -5 -8 3 -8 21 0 50 84 32
95 -6 4 -9 -3 -7 -17z"/>
<path d="M9081 5144 c0 -11 3 -14 6 -6 3 7 2 16 -1 19 -3 4 -6 -2 -5 -13z"/>
<path d="M8400 5139 c0 -11 25 -22 39 -17 6 1 -1 8 -14 15 -14 6 -25 7 -25 2z"/>
<path d="M7926 5125 c-3 -8 -1 -15 4 -15 13 0 22 18 11 24 -5 3 -11 -1 -15 -9z"/>
<path d="M8460 5136 c0 -2 7 -6 15 -10 8 -3 15 -1 15 4 0 6 -7 10 -15 10 -8 0
-15 -2 -15 -4z"/>
<path d="M9160 5137 c0 -16 21 -47 33 -47 8 0 9 3 1 8 -6 4 -16 16 -22 27 -6
11 -12 16 -12 12z"/>
<path d="M9545 5131 c-3 -5 -1 -12 5 -16 5 -3 10 1 10 9 0 18 -6 21 -15 7z"/>
<path d="M10127 5129 c7 -7 15 -10 18 -7 3 3 -2 9 -12 12 -14 6 -15 5 -6 -5z"/>
<path d="M8036 5113 c4 -12 12 -28 20 -34 20 -17 17 2 -6 31 -18 24 -19 24
-14 3z"/>
<path d="M8560 5123 c0 -6 5 -15 10 -18 6 -4 8 -10 5 -15 -3 -5 -1 -11 4 -14
12 -8 8 14 -7 39 -6 11 -12 15 -12 8z"/>
<path d="M8968 5119 c-10 -5 -18 -18 -17 -27 0 -14 2 -14 6 -2 4 8 13 20 22
27 19 15 13 16 -11 2z"/>
<path d="M9080 5078 c-3 -26 -1 -43 3 -39 5 5 7 26 5 47 l-3 39 -5 -47z"/>
<path d="M8850 5099 c0 -5 5 -7 10 -4 6 3 10 8 10 11 0 2 -4 4 -10 4 -5 0 -10
-5 -10 -11z"/>
<path d="M10160 5100 c0 -5 5 -10 11 -10 5 0 7 5 4 10 -3 6 -8 10 -11 10 -2 0
-4 -4 -4 -10z"/>
<path d="M7913 5083 c-3 -10 -8 -22 -11 -27 -3 -5 0 -6 6 -2 7 4 12 13 12 21
0 7 6 16 13 18 9 4 9 6 -1 6 -7 1 -15 -7 -19 -16z"/>
<path d="M9230 5073 c-1 -27 -1 -27 -15 -9 -8 11 -15 15 -15 9 0 -14 39 -48
47 -40 3 4 2 7 -4 7 -5 0 -8 14 -5 30 2 17 2 30 -2 30 -3 0 -6 -12 -6 -27z"/>
<path d="M9423 5085 c-3 -9 -3 -19 1 -22 3 -4 6 1 6 10 0 8 6 18 13 20 9 4 9
6 -1 6 -7 1 -15 -6 -19 -14z"/>
<path d="M9550 5096 c0 -2 7 -9 15 -16 13 -11 14 -10 9 4 -5 14 -24 23 -24 12z"/>
<path d="M10236 5084 c-9 -24 -7 -31 5 -11 7 12 17 16 32 12 17 -5 19 -4 7 4
-21 15 -37 13 -44 -5z"/>
<path d="M10393 5061 c12 -22 23 -38 25 -36 5 5 -26 63 -37 69 -5 4 0 -12 12
-33z"/>
<path d="M7958 5083 c7 -3 16 -2 19 1 4 3 -2 6 -13 5 -11 0 -14 -3 -6 -6z"/>
<path d="M8140 5069 c0 -13 5 -31 10 -39 7 -11 8 -5 4 20 -8 43 -14 51 -14 19z"/>
<path d="M9498 5083 c7 -3 16 -2 19 1 4 3 -2 6 -13 5 -11 0 -14 -3 -6 -6z"/>
<path d="M10328 5083 c6 -2 18 -2 25 0 6 3 1 5 -13 5 -14 0 -19 -2 -12 -5z"/>
<path d="M8400 5070 c0 -5 5 -10 11 -10 5 0 7 5 4 10 -3 6 -8 10 -11 10 -2 0
-4 -4 -4 -10z"/>
<path d="M8840 5070 c0 -5 5 -10 11 -10 5 0 7 5 4 10 -3 6 -8 10 -11 10 -2 0
-4 -4 -4 -10z"/>
<path d="M9830 5051 c14 -11 30 -21 35 -21 11 0 -7 14 -40 31 -13 7 -12 3 5
-10z"/>
<path d="M10160 5059 c0 -5 5 -7 10 -4 6 3 10 8 10 11 0 2 -4 4 -10 4 -5 0
-10 -5 -10 -11z"/>
<path d="M7700 5056 c0 -2 7 -7 16 -10 8 -3 12 -2 9 4 -6 10 -25 14 -25 6z"/>
<path d="M7820 5045 c-14 -8 -20 -14 -14 -15 5 0 19 7 30 15 24 18 16 19 -16
0z"/>
<path d="M8310 5045 c0 -8 4 -15 10 -15 5 0 7 7 4 15 -4 8 -8 15 -10 15 -2 0
-4 -7 -4 -15z"/>
<path d="M9580 5051 c0 -6 4 -13 10 -16 6 -3 7 1 4 9 -7 18 -14 21 -14 7z"/>
<path d="M10220 5039 c0 -5 5 -7 10 -4 6 3 10 8 10 11 0 2 -4 4 -10 4 -5 0
-10 -5 -10 -11z"/>
<path d="M7750 5030 c8 -5 20 -10 25 -10 6 0 3 5 -5 10 -8 5 -19 10 -25 10 -5
0 -3 -5 5 -10z"/>
<path d="M10095 5030 c3 -5 8 -10 11 -10 2 0 4 5 4 10 0 6 -5 10 -11 10 -5 0
-7 -4 -4 -10z"/>
<path d="M7685 4469 c-4 -6 -5 -12 -2 -15 2 -3 7 2 10 11 7 17 1 20 -8 4z"/>
<path d="M7718 4473 c7 -3 16 -2 19 1 4 3 -2 6 -13 5 -11 0 -14 -3 -6 -6z"/>
<path d="M8513 4430 c0 -30 2 -43 4 -27 2 15 2 39 0 55 -2 15 -4 2 -4 -28z"/>
<path d="M9081 4464 c0 -11 3 -14 6 -6 3 7 2 16 -1 19 -3 4 -6 -2 -5 -13z"/>
<path d="M9178 4473 c7 -3 16 -2 19 1 4 3 -2 6 -13 5 -11 0 -14 -3 -6 -6z"/>
<path d="M9806 4467 c3 -10 9 -15 12 -12 3 3 0 11 -7 18 -10 9 -11 8 -5 -6z"/>
<path d="M10117 4469 c7 -7 15 -10 18 -7 3 3 -2 9 -12 12 -14 6 -15 5 -6 -5z"/>
<path d="M10663 4400 c0 -47 2 -66 4 -42 2 23 2 61 0 85 -2 23 -4 4 -4 -43z"/>
<path d="M7911 4453 c7 -12 15 -20 18 -17 3 2 -3 12 -13 22 -17 16 -18 16 -5
-5z"/>
<path d="M7683 4412 c0 -12 5 -22 9 -22 11 0 10 12 -2 30 -7 12 -9 10 -7 -8z"/>
<path d="M9420 4424 c0 -5 12 -22 26 -39 l26 -30 -23 35 c-29 45 -29 45 -29
34z"/>
<path d="M10022 4390 c0 -19 2 -27 5 -17 2 9 2 25 0 35 -3 9 -5 1 -5 -18z"/>
<path d="M7718 4403 c7 -3 16 -2 19 1 4 3 -2 6 -13 5 -11 0 -14 -3 -6 -6z"/>
<path d="M9008 4403 c7 -3 16 -2 19 1 4 3 -2 6 -13 5 -11 0 -14 -3 -6 -6z"/>
<path d="M7893 4360 c0 -25 2 -35 4 -22 2 12 2 32 0 45 -2 12 -4 2 -4 -23z"/>
<path d="M9372 4370 c0 -19 2 -27 5 -17 2 9 2 25 0 35 -3 9 -5 1 -5 -18z"/>
<path d="M11013 4385 c0 -8 4 -12 9 -9 5 3 6 10 3 15 -9 13 -12 11 -12 -6z"/>
<path d="M10916 4374 c-8 -22 -4 -25 11 -9 7 8 9 16 4 19 -5 3 -12 -1 -15 -10z"/>
<path d="M9082 4350 c0 -19 2 -27 5 -17 2 9 2 25 0 35 -3 9 -5 1 -5 -18z"/>
<path d="M11111 4344 c0 -11 3 -14 6 -6 3 7 2 16 -1 19 -3 4 -6 -2 -5 -13z"/>
<path d="M7821 4334 c0 -11 3 -14 6 -6 3 7 2 16 -1 19 -3 4 -6 -2 -5 -13z"/>
<path d="M9480 4341 c0 -5 5 -13 10 -16 6 -3 10 -2 10 4 0 5 -4 13 -10 16 -5
3 -10 2 -10 -4z"/>
<path d="M9850 4341 c0 -6 4 -13 10 -16 6 -3 7 1 4 9 -7 18 -14 21 -14 7z"/>
<path d="M9168 4323 c7 -3 16 -2 19 1 4 3 -2 6 -13 5 -11 0 -14 -3 -6 -6z"/>
<path d="M9638 4323 c7 -3 16 -2 19 1 4 3 -2 6 -13 5 -11 0 -14 -3 -6 -6z"/>
<path d="M8858 4193 c6 -2 18 -2 25 0 6 3 1 5 -13 5 -14 0 -19 -2 -12 -5z"/>
<path d="M9026 4191 c-4 -5 3 -7 14 -4 23 6 26 13 6 13 -8 0 -17 -4 -20 -9z"/>
<path d="M9358 4193 c7 -3 16 -2 19 1 4 3 -2 6 -13 5 -11 0 -14 -3 -6 -6z"/>
<path d="M9418 4193 c7 -3 16 -2 19 1 4 3 -2 6 -13 5 -11 0 -14 -3 -6 -6z"/>
<path d="M9250 4186 c0 -2 7 -9 15 -16 13 -11 14 -10 9 4 -5 14 -24 23 -24 12z"/>
<path d="M10050 4186 c0 -2 7 -7 16 -10 8 -3 12 -2 9 4 -6 10 -25 14 -25 6z"/>
<path d="M8116 4165 c-3 -9 -6 -22 -5 -28 0 -7 5 -1 10 12 5 13 8 26 5 28 -2
2 -6 -3 -10 -12z"/>
<path d="M9393 4115 c0 -27 2 -38 4 -22 2 15 2 37 0 50 -2 12 -4 0 -4 -28z"/>
<path d="M10213 4125 c0 -22 2 -30 4 -17 2 12 2 30 0 40 -3 9 -5 -1 -4 -23z"/>
<path d="M10051 4134 c0 -11 3 -14 6 -6 3 7 2 16 -1 19 -3 4 -6 -2 -5 -13z"/>
<path d="M8878 4093 c7 -3 16 -2 19 1 4 3 -2 6 -13 5 -11 0 -14 -3 -6 -6z"/>
<path d="M9986 4073 c-6 -14 -5 -15 5 -6 7 7 10 15 7 18 -3 3 -9 -2 -12 -12z"/>
<path d="M10126 4077 c3 -10 9 -15 12 -12 3 3 0 11 -7 18 -10 9 -11 8 -5 -6z"/>
<path d="M7820 4050 c0 -5 5 -10 11 -10 5 0 7 5 4 10 -3 6 -8 10 -11 10 -2 0
-4 -4 -4 -10z"/>
<path d="M8508 4043 c7 -3 16 -2 19 1 4 3 -2 6 -13 5 -11 0 -14 -3 -6 -6z"/>
<path d="M8728 4043 c7 -3 16 -2 19 1 4 3 -2 6 -13 5 -11 0 -14 -3 -6 -6z"/>
<path d="M9088 4043 c6 -2 18 -2 25 0 6 3 1 5 -13 5 -14 0 -19 -2 -12 -5z"/>
<path d="M9730 18040 c0 -29 4 -40 15 -40 11 0 15 11 15 40 0 29 -4 40 -15 40
-11 0 -15 -11 -15 -40z"/>
</g>
</svg>
